<svg xmlns="http://www.w3.org/2000/svg" viewBox="0 0 250 72"><path d="M39.26,8c-.4-1.86-1.69-1-2.49-2.24-2-3.12-.44-3-3.23-5.5C23.87-2.74,0,20.87,0,39.48,0,58.81,8.32,58.06,9.19,58c11.43-1.14,21.87-19.26,21.37-25-.49-1.2-2.1-.76-3-1.5-.89-1.14-1.15-3.43-1.74-5-.31-.82-1.29-1-2-1.5-.64.27-.92,1.16-1.49,1.5-1.75,7,2.24,8.22,2.49,8.25-.49,7.7-8.33,16.94-15.41,15.48C8.16,48.85,13.78,28.27,25.59,16c8.06-8.37,8.44-7.3,9-7.25,1.17,4.16-1.63,11.74-4.23,14,.16,1.43.7,1.69,1,3l2.48-.25C38.94,13.72,39.32,10.73,39.26,8Z"/><path class="a" d="M120.75,6c.18-1.32-1.06-1.16-1-5l-1.49.25c-.31,2.26-.42,2-2,4.25C104.8,22.11,102,31.9,97.64,45.73a46.07,46.07,0,0,1,0,5c0,.75-1.44.36-2,1s.2,1.92.25,2.5a166.57,166.57,0,0,1,18.39-.5c.33-.33.74.08.74-1.25-2,.78-2-1.73-2.23-3-3.11.17-3.75-.79-7-.74-1.21-2.06,5.74-11,13.17-34A54.3,54.3,0,0,0,120.75,6Z"/><path class="a" d="M145.1,6.75c-.51-.91-1.9.38-1-2l-1.74-.25A17.35,17.35,0,0,1,140.13,6c-1.79,1.28-3.48,4.52-4.47,6.74-.5,1.1-1.54,3.42-.5,4.75C139,18.54,141.06,10.32,145.1,6.75Z"/><path class="a" d="M179.43,49.36a.54.54,0,0,1-.05.11C179.57,49.31,179.56,49.3,179.43,49.36Z"/><path class="a" d="M249.7,32.74c-2.48.82-6.29,3.46-8.61,4.74-5.11,2.81-4.48,2.75-5.56,2.75.54-2.42,1.47-5.56,1.25-8-.12-1.34,1.19-1.6.74-2.75-.25-.08-.74.58-1,.5-.66-1.36.71-3.57,0-5.25A16.36,16.36,0,0,0,234.79,22c-.33-.58-.91-.91-1.24-1.49-7.8-6.16-18.94,5.72-22.12,11.24-.41-.25-.58-1-1-1.25-6.68,7.92-10.11,12.33-11.93,12.74.76-2.84,4-8.23,5.72-13,.45-1.23.65-4.23,1-5.75-2.06-2.14-2.73-1.79-3.72-5-5.82,0-8.72,6.34-12.67,9V29h-.25c.42-1.85,1-3.1,1-5.5a13.22,13.22,0,0,1-1.24-1,2.48,2.48,0,0,1-.5-1.5h-.74c-.81.86-1.69,1.9-2.49,2.75-3.46,3.7-5.24,8.68-7,14-4.81,14.9,1,12,1.79,11.63,5.83-16.48,18.78-25.08,20.33-25.12-15.86,21.51-7.7,30.89-.75,22.28,3.58-4.45,7.55-9.09,11.07-13.32.19.29.77-.46.86-.46-2.48,5.43-4.58,11.63-1,17.48,6.59,2.91,19.41-11.79,21.12-13,0,2.65-2.74,7.12-4.22,10-1.18,1.72-4.52,4-5,4.49-5.44,5.46-10.15,9.48-11.68,16-.3,1.44.64,2.66,1,4,1.4.3,4.85,1.73,12.17-6.25,6.79-7.4,9.72-19.33,11.18-21.48.76-1.7,3.59-2.36,5.22-3.25,2.47-1.35,4.08-2.56,6.46-4A23,23,0,0,0,248.45,35a12.84,12.84,0,0,1,1.49-.74C250.15,33.59,249.74,33.58,249.7,32.74ZM210.44,33l.25-.5S210.87,32.64,210.44,33Zm1,36c-.37-1.38-1.23-2.92,6.46-11.74,2-2.23,5.1-5.56,7.21-6.5C217.7,65.29,213.52,68.57,211.43,69ZM235,30c-3.79,3.07-16.31,11.64-19.88,14h-1.49c.6-8.82,14-20.73,17.14-20.24a3.24,3.24,0,0,1,3,.5c.79.27,1.23.44,1.49,1.25C235.18,28,235.57,28.08,235,30Z"/><path class="a" d="M75.28,29.74h-.74C71,36.86,60.94,46.61,60.13,46c1-4.14,3.12-8.47,3.23-12.74.27-1,1.93-1.62,1.49-3-.25-.17-1,.41-1.25.25,1.54-5.27.07-5.22-1.24-7.25-1.15-1.78-2-3.06-4.22-3.74-3.9-1.21-8.27,1.21-10.44,2.74-6.5,4.59-17.21,20.66-10.18,29,4,1.93,9.15-3.48,12.67-6A62.86,62.86,0,0,0,54.91,41c.16.85,0,2.87.25,4,.69,3.6,1.41,5.6,4.72,4.74,2.49-1.5,9.23-10.17,10.93-13.49l2.24-2L73.29,33C74,31.78,75.1,31.65,75.28,29.74Zm-16.15,2.5C52.65,39.15,42.14,45.31,41,45c-1.44-2.3,8.06-18.6,17.14-20.49h2.23c.71.67,1.37.67,1.74,1.75.69.9,1,3.85.25,4.75C62,31.67,60.37,30.92,59.13,32.24Z"/><path class="a" d="M178.64,29.74C173.85,37,165,45.94,164,46a49.46,49.46,0,0,0,3.23-12.24c.25-.89,1-2,1.24-2.75.28-1.12-.83.23-1-.25.08-1.42,1.27-3.26.49-5a52.12,52.12,0,0,0-3.72-4.5c-3.34-2.74-7.84-1-10.93.25-2.5,1-7.69,7.32-8.7,8.5-.44.51-1.24,0-1.24,0-4.58,2.36-14.7,16.08-17.39,15.24.51-3.56,3.9-10.6,5.46-14.24.88-2,1.56-4.66,2.74-6.5-.1-1.92-1.31-2.5-2-4.24-10.8,5.7-14.12,23-11.68,28.72a3.1,3.1,0,0,0,2.73,1.75c5.41-.08,13.67-12.73,18.89-17.23-6.46,11.14-1.25,17.73-1.25,17.73,6,1.34,9.61-3.31,13.17-6,1.49-1.13,3.44-2.19,4.47-3.75.45.76.18,2.35.25,3.5.24,3.64,1.42,4.91,5,4.74,2.55-1.57,4-3.56,5.72-5.74C165.65,48.81,180.1,30.57,178.64,29.74Zm-15.41,2c-1.9,3.12-14.71,12.74-18.38,13C146.58,33.11,159.3,24.46,162,24.49c1.47,0,3.17-.58,4,1.75a4.65,4.65,0,0,1,0,4.25C165.56,31.17,163.86,30.71,163.23,31.74Z"/><path class="a" d="M101.12,30.24C98.86,31.7,92,47.77,89.69,46.73c-1.63-3.88,2.86-15.23,5.47-22.24-.07-1.78-1.15-.8-1.49-3C92.09,23,79.76,46.21,79,44.48c-1-1.3,5.93-17.29,5.71-18.24-.6-2.48-2.53-1.77-2.23-5-.4-.14-.84.54-1.49.5a15.76,15.76,0,0,0-3,4c-3.56,5.93-7,16.64-2.73,23.73,6.44,1.52,7.81-7.2,11.18-11,.17,5.86.26,8.71,1.49,10,2.16.57,3.41.19,6.21-3.5,2.61-3.43,3.64-7.35,6.22-11A5.17,5.17,0,0,0,101.12,30.24Z"/></svg>