<svg xmlns="http://www.w3.org/2000/svg" viewBox="0 0 512 512">
	<path fill-rule="evenodd" clip-rule="evenodd" fill="#0070f3" d="M238.74,366.17c-24.56,0.42-12.59,0.42-36.76,0
		C92.86,358.74,92.54,257.24,92.54,257.24s-3.78-104.91,109.44-110.42c105.79,0.4,195.22,0.23,242.54,0.08
		c40.86-0.53,36.61-7.61,26.7-24.61C447.75,81.99,384.8,3.28,250.71,0C-60.02,17.45-88.35,433.93,194.97,504.76
		c42.5,12.75,91.65,4.77,91.65,4.77s-0.23-52.54,0-94.13C286.82,378.65,274.71,365.55,238.74,366.17z M482.55,207.28
		c-12,0.02-229.21,1.03-280.57,0.86c-48.75-0.16-48.73,49.23-48.73,49.23s0.19,47.49,48.73,47.5c-0.03,0,109.56-0.35,121.41,0
		c11.91,0.35,24.03,12.59,23.94,25.04c-0.19,27.35,0.46,163.59,0.64,163.53c24.08-8.5,157.24-66.58,161.49-236.57
		C510.08,231.99,506.75,207.3,482.55,207.28z"/>
</svg>
