<?xml version="1.0" encoding="utf-8"?>
<svg viewBox="0 0 500 500" xmlns="http://www.w3.org/2000/svg">
  <path d="M 0 0 L 500 0 L 500 500 L 0 500 Z M 303.675 242.229 C 302.651 239.816 301.242 237.687 299.448 235.836 C 297.653 233.985 295.521 232.519 293.053 231.44 C 290.587 230.361 287.916 229.82 285.04 229.82 L 158.575 229.82 L 158.575 270.18 L 265.166 270.18 L 265.166 320.405 L 150.024 320.405 C 136.467 320.405 123.845 311.672 123.845 292.052 L 123.845 203.238 C 123.845 190.083 132.872 179.596 150.024 179.596 L 303.38 179.596 L 303.38 139.551 L 140.551 139.551 C 133.667 139.551 127.505 140.428 122.063 142.18 C 116.623 143.919 111.821 146.254 107.656 149.183 C 103.507 152.113 99.938 155.478 96.951 159.279 C 93.979 163.08 91.567 167.054 89.716 171.204 C 87.865 175.369 86.505 179.582 85.636 183.844 C 84.768 188.107 84.332 192.083 84.332 195.769 L 84.332 304.231 C 84.332 311.102 85.201 317.287 86.939 322.782 C 88.691 328.278 91.035 333.109 93.964 337.272 C 96.881 341.423 100.238 344.965 104.039 347.894 C 107.839 350.823 111.821 353.215 115.985 355.065 C 120.15 356.902 124.363 358.262 128.625 359.146 C 132.874 360.015 136.849 360.45 140.551 360.45 L 285.04 360.45 C 287.916 360.45 290.587 359.939 293.053 358.915 C 295.521 357.89 297.653 356.475 299.448 354.667 C 301.242 352.872 302.651 350.739 303.675 348.273 C 304.713 345.817 305.231 343.155 305.231 340.281 L 305.231 250.011 C 305.231 247.235 304.713 244.641 303.675 242.229 Z M 397.791 320.405 C 393.165 320.405 389.316 318.94 386.246 316.01 C 383.159 313.079 381.617 309.153 381.617 304.231 L 381.617 139.633 L 341.572 139.633 L 341.572 304.231 C 341.572 314.594 343.415 323.343 347.105 330.48 C 350.805 337.616 355.481 343.42 361.133 347.894 C 366.782 352.367 372.869 355.578 379.389 357.526 C 385.908 359.477 392.042 360.45 397.791 360.45 L 415.668 360.45 L 415.668 320.405 Z" style="fill: rgb(0, 123, 255);"/>
</svg>