<?xml version="1.0" encoding="utf-8"?>
<svg version="1.1" viewBox="41.925 47.059 713.767 387.79" fill="none" stroke="none" stroke-linecap="square" stroke-miterlimit="10" xmlns="http://www.w3.org/2000/svg">
  <clipPath id="p.0">
    <path d="m0 0l800.0 0l0 600.0l-800.0 0l0 -600.0z" clip-rule="nonzero"/>
  </clipPath>
  <g clip-path="url(#p.0)">
    <path fill="#efefef" d="M 275.63 209.906 L 519.63 209.906 L 519.63 430 L 275.63 430 Z" fill-rule="evenodd"/>
    <path stroke="#000000" stroke-width="1.0" stroke-linejoin="round" stroke-linecap="butt" stroke-dasharray="1.0,3.0" d="M 275.63 209.906 L 519.63 209.906 L 519.63 430 L 275.63 430 Z" fill-rule="evenodd"/>
    <path fill="#a4c2f4" d="M 307.629 241.984 L 487.629 241.984 L 487.629 283.969 L 307.629 283.969 Z" fill-rule="evenodd"/>
    <path stroke="#000000" stroke-width="1.0" stroke-linejoin="round" stroke-linecap="butt" d="M 307.629 241.984 L 487.629 241.984 L 487.629 283.969 L 307.629 283.969 Z" fill-rule="evenodd"/>
    <path fill="#000000" d="M 366.811 268.709 C 366.196 269.219 365.608 269.584 365.045 269.803 C 364.493 270.011 363.894 270.115 363.248 270.115 C 362.186 270.115 361.368 269.855 360.795 269.334 C 360.222 268.813 359.936 268.152 359.936 267.349 C 359.936 266.87 360.045 266.438 360.264 266.053 C 360.483 265.657 360.764 265.344 361.108 265.115 C 361.462 264.876 361.858 264.693 362.295 264.568 C 362.608 264.485 363.092 264.402 363.748 264.318 C 365.071 264.162 366.045 263.974 366.67 263.756 C 366.681 263.527 366.686 263.386 366.686 263.334 C 366.686 262.667 366.53 262.193 366.217 261.912 C 365.8 261.547 365.175 261.365 364.342 261.365 C 363.571 261.365 363.004 261.501 362.639 261.771 C 362.274 262.042 362.004 262.516 361.826 263.193 L 360.217 262.974 C 360.363 262.297 360.603 261.751 360.936 261.334 C 361.269 260.907 361.754 260.579 362.389 260.349 C 363.024 260.12 363.754 260.006 364.576 260.006 C 365.41 260.006 366.082 260.105 366.592 260.303 C 367.113 260.49 367.493 260.735 367.733 261.037 C 367.983 261.329 368.155 261.698 368.248 262.146 C 368.3 262.428 368.326 262.933 368.326 263.662 L 368.326 265.849 C 368.326 267.37 368.363 268.334 368.436 268.74 C 368.509 269.136 368.644 269.521 368.842 269.896 L 367.139 269.896 C 366.962 269.553 366.853 269.157 366.811 268.709 Z M 366.67 265.037 C 366.076 265.287 365.186 265.495 363.998 265.662 C 363.321 265.756 362.842 265.865 362.561 265.99 C 362.28 266.115 362.061 266.292 361.905 266.521 C 361.759 266.751 361.686 267.011 361.686 267.303 C 361.686 267.74 361.853 268.105 362.186 268.396 C 362.519 268.688 363.004 268.834 363.639 268.834 C 364.264 268.834 364.821 268.698 365.311 268.428 C 365.811 268.146 366.175 267.766 366.405 267.287 C 366.582 266.912 366.67 266.365 366.67 265.646 L 366.67 265.037 Z M 370.874 273.599 L 370.874 260.224 L 372.358 260.224 L 372.358 261.474 C 372.713 260.985 373.108 260.62 373.546 260.381 C 373.994 260.131 374.536 260.006 375.171 260.006 C 375.994 260.006 376.718 260.219 377.343 260.646 C 377.978 261.063 378.457 261.662 378.78 262.443 C 379.103 263.214 379.265 264.063 379.265 264.99 C 379.265 265.98 379.088 266.87 378.733 267.662 C 378.379 268.454 377.864 269.063 377.187 269.49 C 376.509 269.907 375.796 270.115 375.046 270.115 C 374.504 270.115 374.015 270.001 373.577 269.771 C 373.14 269.542 372.786 269.251 372.515 268.896 L 372.515 273.599 L 370.874 273.599 Z M 372.358 265.115 C 372.358 266.355 372.608 267.277 373.108 267.881 C 373.619 268.474 374.228 268.771 374.937 268.771 C 375.666 268.771 376.291 268.464 376.812 267.849 C 377.332 267.224 377.593 266.266 377.593 264.974 C 377.593 263.745 377.338 262.823 376.827 262.209 C 376.327 261.594 375.723 261.287 375.015 261.287 C 374.317 261.287 373.697 261.615 373.155 262.271 C 372.624 262.917 372.358 263.865 372.358 265.115 Z M 381.25 258.428 L 381.25 256.537 L 382.89 256.537 L 382.89 258.428 L 381.25 258.428 Z M 381.25 269.896 L 381.25 260.224 L 382.89 260.224 L 382.89 269.896 L 381.25 269.896 Z M 384.738 267.006 L 386.363 266.756 C 386.447 267.402 386.697 267.902 387.113 268.256 C 387.53 268.599 388.113 268.771 388.863 268.771 C 389.613 268.771 390.171 268.62 390.535 268.318 C 390.9 268.006 391.082 267.641 391.082 267.224 C 391.082 266.86 390.921 266.568 390.598 266.349 C 390.379 266.204 389.822 266.021 388.926 265.803 C 387.718 265.49 386.879 265.224 386.41 265.006 C 385.952 264.787 385.603 264.485 385.363 264.099 C 385.124 263.704 385.004 263.266 385.004 262.787 C 385.004 262.36 385.103 261.964 385.301 261.599 C 385.499 261.224 385.77 260.917 386.113 260.678 C 386.363 260.49 386.707 260.334 387.145 260.209 C 387.593 260.073 388.066 260.006 388.566 260.006 C 389.327 260.006 389.994 260.115 390.566 260.334 C 391.139 260.553 391.561 260.849 391.832 261.224 C 392.113 261.599 392.306 262.099 392.41 262.724 L 390.801 262.943 C 390.728 262.443 390.514 262.053 390.16 261.771 C 389.816 261.49 389.327 261.349 388.691 261.349 C 387.931 261.349 387.389 261.474 387.066 261.724 C 386.754 261.974 386.598 262.266 386.598 262.599 C 386.598 262.808 386.66 263.001 386.785 263.178 C 386.921 263.355 387.134 263.501 387.426 263.615 C 387.582 263.678 388.061 263.818 388.863 264.037 C 390.03 264.339 390.843 264.589 391.301 264.787 C 391.759 264.985 392.119 265.271 392.379 265.646 C 392.639 266.021 392.77 266.49 392.77 267.053 C 392.77 267.605 392.608 268.12 392.285 268.599 C 391.973 269.079 391.514 269.454 390.91 269.724 C 390.306 269.985 389.624 270.115 388.863 270.115 C 387.613 270.115 386.655 269.855 385.988 269.334 C 385.332 268.813 384.915 268.037 384.738 267.006 Z M 401.348 266.787 L 403.035 266.99 C 402.764 267.98 402.27 268.751 401.551 269.303 C 400.832 269.844 399.91 270.115 398.785 270.115 C 397.369 270.115 396.244 269.683 395.41 268.818 C 394.587 267.943 394.176 266.719 394.176 265.146 C 394.176 263.511 394.593 262.245 395.426 261.349 C 396.27 260.454 397.358 260.006 398.691 260.006 C 399.983 260.006 401.035 260.448 401.848 261.334 C 402.671 262.209 403.082 263.443 403.082 265.037 C 403.082 265.141 403.082 265.287 403.082 265.474 L 395.863 265.474 C 395.926 266.537 396.228 267.355 396.77 267.928 C 397.311 268.49 397.983 268.771 398.785 268.771 C 399.389 268.771 399.905 268.615 400.332 268.303 C 400.759 267.98 401.098 267.474 401.348 266.787 Z M 395.957 264.131 L 401.363 264.131 C 401.29 263.318 401.082 262.709 400.738 262.303 C 400.218 261.667 399.54 261.349 398.707 261.349 C 397.957 261.349 397.322 261.605 396.801 262.115 C 396.29 262.615 396.009 263.287 395.957 264.131 Z M 405.083 269.896 L 405.083 260.224 L 406.552 260.224 L 406.552 261.693 C 406.927 261.006 407.27 260.553 407.583 260.334 C 407.906 260.115 408.26 260.006 408.645 260.006 C 409.197 260.006 409.76 260.183 410.333 260.537 L 409.77 262.053 C 409.364 261.813 408.963 261.693 408.567 261.693 C 408.203 261.693 407.88 261.803 407.598 262.021 C 407.317 262.24 407.114 262.537 406.989 262.912 C 406.802 263.495 406.708 264.136 406.708 264.834 L 406.708 269.896 L 405.083 269.896 Z M 413.999 269.896 L 410.311 260.224 L 412.045 260.224 L 414.124 266.021 C 414.342 266.646 414.551 267.292 414.749 267.959 C 414.884 267.448 415.087 266.839 415.358 266.131 L 417.499 260.224 L 419.186 260.224 L 415.53 269.896 L 413.999 269.896 Z M 427.264 266.787 L 428.952 266.99 C 428.681 267.98 428.186 268.751 427.467 269.303 C 426.749 269.844 425.827 270.115 424.702 270.115 C 423.285 270.115 422.16 269.683 421.327 268.818 C 420.504 267.943 420.092 266.719 420.092 265.146 C 420.092 263.511 420.509 262.245 421.342 261.349 C 422.186 260.454 423.275 260.006 424.608 260.006 C 425.9 260.006 426.952 260.448 427.764 261.334 C 428.587 262.209 428.999 263.443 428.999 265.037 C 428.999 265.141 428.999 265.287 428.999 265.474 L 421.78 265.474 C 421.842 266.537 422.144 267.355 422.686 267.928 C 423.228 268.49 423.9 268.771 424.702 268.771 C 425.306 268.771 425.822 268.615 426.249 268.303 C 426.676 267.98 427.014 267.474 427.264 266.787 Z M 421.874 264.131 L 427.28 264.131 C 427.207 263.318 426.999 262.709 426.655 262.303 C 426.134 261.667 425.457 261.349 424.624 261.349 C 423.874 261.349 423.238 261.605 422.717 262.115 C 422.207 262.615 421.926 263.287 421.874 264.131 Z M 430.999 269.896 L 430.999 260.224 L 432.468 260.224 L 432.468 261.693 C 432.843 261.006 433.187 260.553 433.499 260.334 C 433.822 260.115 434.176 260.006 434.562 260.006 C 435.114 260.006 435.676 260.183 436.249 260.537 L 435.687 262.053 C 435.281 261.813 434.88 261.693 434.484 261.693 C 434.119 261.693 433.796 261.803 433.515 262.021 C 433.234 262.24 433.031 262.537 432.906 262.912 C 432.718 263.495 432.624 264.136 432.624 264.834 L 432.624 269.896 L 430.999 269.896 Z" fill-rule="nonzero"/>
    <path fill="#b6d7a8" d="M 307.629 367.034 L 487.629 367.034 L 487.629 409.018 L 307.629 409.018 Z" fill-rule="evenodd"/>
    <path stroke="#000000" stroke-width="1.0" stroke-linejoin="round" stroke-linecap="butt" d="M 307.629 367.034 L 487.629 367.034 L 487.629 409.018 L 307.629 409.018 Z" fill-rule="evenodd"/>
    <path fill="#000000" d="M 387.857 391.837 L 389.544 392.04 C 389.273 393.03 388.778 393.8 388.06 394.353 C 387.341 394.894 386.419 395.165 385.294 395.165 C 383.877 395.165 382.752 394.733 381.919 393.868 C 381.096 392.993 380.685 391.769 380.685 390.196 C 380.685 388.561 381.101 387.295 381.935 386.399 C 382.778 385.504 383.867 385.056 385.2 385.056 C 386.492 385.056 387.544 385.498 388.357 386.384 C 389.179 387.259 389.591 388.493 389.591 390.087 C 389.591 390.191 389.591 390.337 389.591 390.524 L 382.372 390.524 C 382.435 391.587 382.737 392.405 383.278 392.978 C 383.82 393.54 384.492 393.821 385.294 393.821 C 385.898 393.821 386.414 393.665 386.841 393.353 C 387.268 393.03 387.607 392.524 387.857 391.837 Z M 382.466 389.181 L 387.872 389.181 C 387.799 388.368 387.591 387.759 387.247 387.353 C 386.726 386.717 386.049 386.399 385.216 386.399 C 384.466 386.399 383.831 386.655 383.31 387.165 C 382.799 387.665 382.518 388.337 382.466 389.181 Z M 395.185 393.478 L 395.42 394.931 C 394.961 395.024 394.55 395.071 394.185 395.071 C 393.592 395.071 393.128 394.978 392.795 394.79 C 392.472 394.603 392.243 394.358 392.107 394.056 C 391.972 393.743 391.904 393.097 391.904 392.118 L 391.904 386.54 L 390.701 386.54 L 390.701 385.274 L 391.904 385.274 L 391.904 382.884 L 393.529 381.899 L 393.529 385.274 L 395.185 385.274 L 395.185 386.54 L 393.529 386.54 L 393.529 392.212 C 393.529 392.67 393.555 392.967 393.607 393.103 C 393.67 393.238 393.764 393.347 393.889 393.431 C 394.024 393.504 394.217 393.54 394.467 393.54 C 394.644 393.54 394.883 393.519 395.185 393.478 Z M 403.103 391.399 L 404.712 391.618 C 404.535 392.722 404.082 393.592 403.353 394.228 C 402.634 394.853 401.744 395.165 400.681 395.165 C 399.358 395.165 398.296 394.733 397.494 393.868 C 396.692 393.004 396.291 391.764 396.291 390.149 C 396.291 389.097 396.462 388.181 396.806 387.399 C 397.15 386.618 397.676 386.035 398.384 385.649 C 399.093 385.254 399.864 385.056 400.697 385.056 C 401.749 385.056 402.608 385.321 403.275 385.853 C 403.942 386.384 404.369 387.139 404.556 388.118 L 402.962 388.353 C 402.806 387.707 402.535 387.222 402.15 386.899 C 401.765 386.566 401.301 386.399 400.759 386.399 C 399.936 386.399 399.265 386.696 398.744 387.29 C 398.223 387.884 397.962 388.821 397.962 390.103 C 397.962 391.405 398.212 392.353 398.712 392.946 C 399.212 393.53 399.864 393.821 400.666 393.821 C 401.311 393.821 401.848 393.623 402.275 393.228 C 402.712 392.832 402.989 392.222 403.103 391.399 Z M 412.384 394.946 L 412.384 393.728 C 411.78 394.686 410.879 395.165 409.681 395.165 C 408.91 395.165 408.202 394.951 407.556 394.524 C 406.91 394.097 406.41 393.504 406.056 392.743 C 405.702 391.983 405.525 391.108 405.525 390.118 C 405.525 389.149 405.686 388.274 406.009 387.493 C 406.332 386.701 406.811 386.097 407.447 385.681 C 408.093 385.264 408.817 385.056 409.619 385.056 C 410.202 385.056 410.718 385.181 411.166 385.431 C 411.624 385.67 411.994 385.988 412.275 386.384 L 412.275 381.587 L 413.916 381.587 L 413.916 394.946 L 412.384 394.946 Z M 407.212 390.118 C 407.212 391.358 407.473 392.285 407.994 392.899 C 408.515 393.514 409.129 393.821 409.837 393.821 C 410.556 393.821 411.166 393.53 411.666 392.946 C 412.166 392.353 412.416 391.457 412.416 390.259 C 412.416 388.936 412.16 387.967 411.65 387.353 C 411.14 386.728 410.509 386.415 409.759 386.415 C 409.041 386.415 408.436 386.712 407.947 387.306 C 407.457 387.899 407.212 388.837 407.212 390.118 Z" fill-rule="nonzero"/>
    <path fill="#cfe2f3" d="M 307.627 283.517 L 487.627 283.517 L 487.627 325.501 L 307.627 325.501 Z" fill-rule="evenodd"/>
    <path stroke="#000000" stroke-width="1.0" stroke-linejoin="round" stroke-linecap="butt" d="M 307.627 283.517 L 487.627 283.517 L 487.627 325.501 L 307.627 325.501 Z" fill-rule="evenodd"/>
    <path fill="#000000" d="M 326.887 307.882 L 328.497 308.101 C 328.319 309.205 327.866 310.075 327.137 310.71 C 326.418 311.335 325.528 311.648 324.465 311.648 C 323.142 311.648 322.08 311.216 321.278 310.351 C 320.476 309.486 320.075 308.247 320.075 306.632 C 320.075 305.58 320.247 304.664 320.59 303.882 C 320.934 303.101 321.46 302.518 322.168 302.132 C 322.877 301.736 323.648 301.539 324.481 301.539 C 325.533 301.539 326.392 301.804 327.059 302.335 C 327.726 302.867 328.153 303.622 328.34 304.601 L 326.747 304.835 C 326.59 304.19 326.319 303.705 325.934 303.382 C 325.549 303.049 325.085 302.882 324.543 302.882 C 323.72 302.882 323.049 303.179 322.528 303.773 C 322.007 304.367 321.747 305.304 321.747 306.585 C 321.747 307.888 321.997 308.835 322.497 309.429 C 322.997 310.013 323.648 310.304 324.45 310.304 C 325.095 310.304 325.632 310.106 326.059 309.71 C 326.497 309.315 326.773 308.705 326.887 307.882 Z M 329.293 306.585 C 329.293 304.794 329.788 303.471 330.778 302.617 C 331.611 301.898 332.627 301.539 333.825 301.539 C 335.158 301.539 336.247 301.976 337.09 302.851 C 337.934 303.716 338.356 304.919 338.356 306.46 C 338.356 307.7 338.168 308.679 337.793 309.398 C 337.418 310.106 336.872 310.658 336.153 311.054 C 335.444 311.45 334.668 311.648 333.825 311.648 C 332.47 311.648 331.377 311.216 330.543 310.351 C 329.71 309.476 329.293 308.221 329.293 306.585 Z M 330.981 306.585 C 330.981 307.825 331.247 308.757 331.778 309.382 C 332.319 309.997 333.002 310.304 333.825 310.304 C 334.637 310.304 335.314 309.997 335.856 309.382 C 336.398 308.757 336.668 307.809 336.668 306.539 C 336.668 305.341 336.398 304.434 335.856 303.82 C 335.314 303.205 334.637 302.898 333.825 302.898 C 333.002 302.898 332.319 303.205 331.778 303.82 C 331.247 304.424 330.981 305.346 330.981 306.585 Z M 340.279 311.429 L 340.279 301.757 L 341.747 301.757 L 341.747 303.132 C 342.456 302.07 343.482 301.539 344.825 301.539 C 345.409 301.539 345.945 301.643 346.435 301.851 C 346.924 302.059 347.289 302.335 347.529 302.679 C 347.779 303.013 347.95 303.414 348.044 303.882 C 348.107 304.184 348.138 304.716 348.138 305.476 L 348.138 311.429 L 346.497 311.429 L 346.497 305.539 C 346.497 304.872 346.43 304.377 346.294 304.054 C 346.169 303.721 345.945 303.455 345.622 303.257 C 345.299 303.059 344.919 302.96 344.482 302.96 C 343.784 302.96 343.18 303.184 342.669 303.632 C 342.169 304.07 341.919 304.908 341.919 306.148 L 341.919 311.429 L 340.279 311.429 Z M 354.232 309.96 L 354.467 311.414 C 354.008 311.507 353.597 311.554 353.232 311.554 C 352.639 311.554 352.175 311.46 351.842 311.273 C 351.519 311.085 351.29 310.841 351.154 310.539 C 351.019 310.226 350.951 309.58 350.951 308.601 L 350.951 303.023 L 349.748 303.023 L 349.748 301.757 L 350.951 301.757 L 350.951 299.367 L 352.576 298.382 L 352.576 301.757 L 354.232 301.757 L 354.232 303.023 L 352.576 303.023 L 352.576 308.695 C 352.576 309.153 352.602 309.45 352.654 309.585 C 352.717 309.721 352.81 309.83 352.935 309.914 C 353.071 309.986 353.264 310.023 353.514 310.023 C 353.691 310.023 353.93 310.002 354.232 309.96 Z M 355.822 311.429 L 355.822 301.757 L 357.291 301.757 L 357.291 303.226 C 357.666 302.539 358.009 302.085 358.322 301.867 C 358.645 301.648 358.999 301.539 359.384 301.539 C 359.936 301.539 360.499 301.716 361.072 302.07 L 360.509 303.585 C 360.103 303.346 359.702 303.226 359.306 303.226 C 358.942 303.226 358.619 303.335 358.338 303.554 C 358.056 303.773 357.853 304.07 357.728 304.445 C 357.541 305.028 357.447 305.669 357.447 306.367 L 357.447 311.429 L 355.822 311.429 Z M 361.441 306.585 C 361.441 304.794 361.936 303.471 362.925 302.617 C 363.759 301.898 364.774 301.539 365.972 301.539 C 367.305 301.539 368.394 301.976 369.238 302.851 C 370.081 303.716 370.503 304.919 370.503 306.46 C 370.503 307.7 370.316 308.679 369.941 309.398 C 369.566 310.106 369.019 310.658 368.3 311.054 C 367.592 311.45 366.816 311.648 365.972 311.648 C 364.618 311.648 363.524 311.216 362.691 310.351 C 361.857 309.476 361.441 308.221 361.441 306.585 Z M 363.128 306.585 C 363.128 307.825 363.394 308.757 363.925 309.382 C 364.467 309.997 365.149 310.304 365.972 310.304 C 366.785 310.304 367.462 309.997 368.003 309.382 C 368.545 308.757 368.816 307.809 368.816 306.539 C 368.816 305.341 368.545 304.434 368.003 303.82 C 367.462 303.205 366.785 302.898 365.972 302.898 C 365.149 302.898 364.467 303.205 363.925 303.82 C 363.394 304.424 363.128 305.346 363.128 306.585 Z M 372.379 311.429 L 372.379 298.07 L 374.02 298.07 L 374.02 311.429 L 372.379 311.429 Z M 376.524 311.429 L 376.524 298.07 L 378.164 298.07 L 378.164 311.429 L 376.524 311.429 Z M 387.341 308.32 L 389.028 308.523 C 388.757 309.513 388.262 310.283 387.544 310.835 C 386.825 311.377 385.903 311.648 384.778 311.648 C 383.361 311.648 382.236 311.216 381.403 310.351 C 380.58 309.476 380.169 308.252 380.169 306.679 C 380.169 305.044 380.585 303.778 381.419 302.882 C 382.262 301.986 383.351 301.539 384.684 301.539 C 385.976 301.539 387.028 301.981 387.841 302.867 C 388.663 303.742 389.075 304.976 389.075 306.57 C 389.075 306.674 389.075 306.82 389.075 307.007 L 381.856 307.007 C 381.919 308.07 382.221 308.888 382.762 309.46 C 383.304 310.023 383.976 310.304 384.778 310.304 C 385.382 310.304 385.898 310.148 386.325 309.835 C 386.752 309.513 387.091 309.007 387.341 308.32 Z M 381.95 305.664 L 387.356 305.664 C 387.283 304.851 387.075 304.242 386.731 303.835 C 386.21 303.2 385.533 302.882 384.7 302.882 C 383.95 302.882 383.315 303.138 382.794 303.648 C 382.283 304.148 382.002 304.82 381.95 305.664 Z M 391.076 311.429 L 391.076 301.757 L 392.544 301.757 L 392.544 303.226 C 392.919 302.539 393.263 302.085 393.576 301.867 C 393.899 301.648 394.253 301.539 394.638 301.539 C 395.19 301.539 395.753 301.716 396.326 302.07 L 395.763 303.585 C 395.357 303.346 394.956 303.226 394.56 303.226 C 394.195 303.226 393.873 303.335 393.591 303.554 C 393.31 303.773 393.107 304.07 392.982 304.445 C 392.794 305.028 392.701 305.669 392.701 306.367 L 392.701 311.429 L 391.076 311.429 Z M 396.663 307.414 L 396.663 305.773 L 401.695 305.773 L 401.695 307.414 L 396.663 307.414 Z M 403.517 311.429 L 403.517 301.757 L 404.985 301.757 L 404.985 303.117 C 405.287 302.638 405.689 302.257 406.189 301.976 C 406.699 301.684 407.272 301.539 407.907 301.539 C 408.626 301.539 409.215 301.69 409.673 301.992 C 410.131 302.283 410.454 302.695 410.642 303.226 C 411.412 302.101 412.407 301.539 413.626 301.539 C 414.595 301.539 415.334 301.804 415.845 302.335 C 416.366 302.867 416.626 303.684 416.626 304.789 L 416.626 311.429 L 414.985 311.429 L 414.985 305.335 C 414.985 304.679 414.933 304.21 414.829 303.929 C 414.725 303.638 414.532 303.403 414.251 303.226 C 413.97 303.049 413.642 302.96 413.267 302.96 C 412.59 302.96 412.027 303.19 411.579 303.648 C 411.131 304.096 410.907 304.815 410.907 305.804 L 410.907 311.429 L 409.267 311.429 L 409.267 305.148 C 409.267 304.419 409.131 303.872 408.86 303.507 C 408.59 303.143 408.152 302.96 407.548 302.96 C 407.09 302.96 406.662 303.08 406.267 303.32 C 405.871 303.559 405.584 303.914 405.407 304.382 C 405.241 304.851 405.157 305.528 405.157 306.414 L 405.157 311.429 L 403.517 311.429 Z M 425.37 310.242 C 424.755 310.752 424.167 311.117 423.604 311.335 C 423.052 311.544 422.453 311.648 421.807 311.648 C 420.745 311.648 419.927 311.388 419.354 310.867 C 418.781 310.346 418.495 309.684 418.495 308.882 C 418.495 308.403 418.604 307.971 418.823 307.585 C 419.042 307.19 419.323 306.877 419.667 306.648 C 420.021 306.408 420.417 306.226 420.854 306.101 C 421.167 306.018 421.651 305.934 422.307 305.851 C 423.63 305.695 424.604 305.507 425.229 305.289 C 425.24 305.059 425.245 304.919 425.245 304.867 C 425.245 304.2 425.089 303.726 424.776 303.445 C 424.36 303.08 423.735 302.898 422.901 302.898 C 422.13 302.898 421.563 303.033 421.198 303.304 C 420.833 303.575 420.563 304.049 420.386 304.726 L 418.776 304.507 C 418.922 303.83 419.162 303.283 419.495 302.867 C 419.828 302.44 420.313 302.111 420.948 301.882 C 421.583 301.653 422.313 301.539 423.136 301.539 C 423.969 301.539 424.641 301.638 425.151 301.835 C 425.672 302.023 426.052 302.268 426.292 302.57 C 426.542 302.861 426.714 303.231 426.807 303.679 C 426.86 303.96 426.886 304.466 426.886 305.195 L 426.886 307.382 C 426.886 308.903 426.922 309.867 426.995 310.273 C 427.068 310.669 427.203 311.054 427.401 311.429 L 425.698 311.429 C 425.521 311.085 425.412 310.69 425.37 310.242 Z M 425.229 306.57 C 424.636 306.82 423.745 307.028 422.557 307.195 C 421.88 307.289 421.401 307.398 421.12 307.523 C 420.839 307.648 420.62 307.825 420.464 308.054 C 420.318 308.283 420.245 308.544 420.245 308.835 C 420.245 309.273 420.412 309.638 420.745 309.929 C 421.078 310.221 421.563 310.367 422.198 310.367 C 422.823 310.367 423.38 310.231 423.87 309.96 C 424.37 309.679 424.735 309.299 424.964 308.82 C 425.141 308.445 425.229 307.898 425.229 307.179 L 425.229 306.57 Z M 429.433 311.429 L 429.433 301.757 L 430.902 301.757 L 430.902 303.132 C 431.61 302.07 432.636 301.539 433.98 301.539 C 434.563 301.539 435.1 301.643 435.589 301.851 C 436.079 302.059 436.444 302.335 436.683 302.679 C 436.933 303.013 437.105 303.414 437.199 303.882 C 437.261 304.184 437.293 304.716 437.293 305.476 L 437.293 311.429 L 435.652 311.429 L 435.652 305.539 C 435.652 304.872 435.584 304.377 435.449 304.054 C 435.324 303.721 435.1 303.455 434.777 303.257 C 434.454 303.059 434.074 302.96 433.636 302.96 C 432.938 302.96 432.334 303.184 431.824 303.632 C 431.324 304.07 431.074 304.908 431.074 306.148 L 431.074 311.429 L 429.433 311.429 Z M 446.121 310.242 C 445.507 310.752 444.918 311.117 444.356 311.335 C 443.804 311.544 443.205 311.648 442.559 311.648 C 441.496 311.648 440.679 311.388 440.106 310.867 C 439.533 310.346 439.246 309.684 439.246 308.882 C 439.246 308.403 439.356 307.971 439.574 307.585 C 439.793 307.19 440.074 306.877 440.418 306.648 C 440.772 306.408 441.168 306.226 441.606 306.101 C 441.918 306.018 442.403 305.934 443.059 305.851 C 444.382 305.695 445.356 305.507 445.981 305.289 C 445.991 305.059 445.996 304.919 445.996 304.867 C 445.996 304.2 445.84 303.726 445.528 303.445 C 445.111 303.08 444.486 302.898 443.653 302.898 C 442.882 302.898 442.314 303.033 441.949 303.304 C 441.585 303.575 441.314 304.049 441.137 304.726 L 439.528 304.507 C 439.673 303.83 439.913 303.283 440.246 302.867 C 440.58 302.44 441.064 302.111 441.699 301.882 C 442.335 301.653 443.064 301.539 443.887 301.539 C 444.72 301.539 445.392 301.638 445.903 301.835 C 446.423 302.023 446.804 302.268 447.043 302.57 C 447.293 302.861 447.465 303.231 447.559 303.679 C 447.611 303.96 447.637 304.466 447.637 305.195 L 447.637 307.382 C 447.637 308.903 447.673 309.867 447.746 310.273 C 447.819 310.669 447.955 311.054 448.153 311.429 L 446.449 311.429 C 446.272 311.085 446.163 310.69 446.121 310.242 Z M 445.981 306.57 C 445.387 306.82 444.496 307.028 443.309 307.195 C 442.632 307.289 442.153 307.398 441.871 307.523 C 441.59 307.648 441.371 307.825 441.215 308.054 C 441.069 308.283 440.996 308.544 440.996 308.835 C 440.996 309.273 441.163 309.638 441.496 309.929 C 441.83 310.221 442.314 310.367 442.949 310.367 C 443.574 310.367 444.132 310.231 444.621 309.96 C 445.121 309.679 445.486 309.299 445.715 308.82 C 445.892 308.445 445.981 307.898 445.981 307.179 L 445.981 306.57 Z M 449.872 312.226 L 451.466 312.46 C 451.539 312.96 451.726 313.32 452.028 313.539 C 452.435 313.841 452.992 313.992 453.7 313.992 C 454.461 313.992 455.044 313.841 455.45 313.539 C 455.867 313.236 456.148 312.815 456.294 312.273 C 456.377 311.94 456.414 311.236 456.403 310.164 C 455.695 311.007 454.804 311.429 453.731 311.429 C 452.398 311.429 451.367 310.95 450.638 309.992 C 449.909 309.033 449.544 307.882 449.544 306.539 C 449.544 305.611 449.711 304.757 450.044 303.976 C 450.388 303.195 450.872 302.596 451.497 302.179 C 452.132 301.752 452.882 301.539 453.747 301.539 C 454.882 301.539 455.82 301.997 456.56 302.914 L 456.56 301.757 L 458.075 301.757 L 458.075 310.117 C 458.075 311.627 457.919 312.695 457.606 313.32 C 457.304 313.945 456.82 314.44 456.153 314.804 C 455.497 315.169 454.679 315.351 453.7 315.351 C 452.554 315.351 451.622 315.091 450.903 314.57 C 450.195 314.059 449.851 313.278 449.872 312.226 Z M 451.231 306.414 C 451.231 307.684 451.481 308.611 451.981 309.195 C 452.492 309.778 453.127 310.07 453.888 310.07 C 454.638 310.07 455.268 309.783 455.778 309.21 C 456.289 308.627 456.544 307.716 456.544 306.476 C 456.544 305.289 456.278 304.398 455.747 303.804 C 455.226 303.2 454.596 302.898 453.856 302.898 C 453.127 302.898 452.507 303.195 451.997 303.789 C 451.487 304.372 451.231 305.247 451.231 306.414 Z M 467.185 308.32 L 468.873 308.523 C 468.602 309.513 468.107 310.283 467.388 310.835 C 466.67 311.377 465.748 311.648 464.623 311.648 C 463.206 311.648 462.081 311.216 461.248 310.351 C 460.425 309.476 460.013 308.252 460.013 306.679 C 460.013 305.044 460.43 303.778 461.263 302.882 C 462.107 301.986 463.196 301.539 464.529 301.539 C 465.821 301.539 466.873 301.981 467.685 302.867 C 468.508 303.742 468.92 304.976 468.92 306.57 C 468.92 306.674 468.92 306.82 468.92 307.007 L 461.701 307.007 C 461.763 308.07 462.066 308.888 462.607 309.46 C 463.149 310.023 463.821 310.304 464.623 310.304 C 465.227 310.304 465.743 310.148 466.17 309.835 C 466.597 309.513 466.935 309.007 467.185 308.32 Z M 461.795 305.664 L 467.201 305.664 C 467.128 304.851 466.92 304.242 466.576 303.835 C 466.055 303.2 465.378 302.882 464.545 302.882 C 463.795 302.882 463.159 303.138 462.638 303.648 C 462.128 304.148 461.847 304.82 461.795 305.664 Z M 470.92 311.429 L 470.92 301.757 L 472.389 301.757 L 472.389 303.226 C 472.764 302.539 473.108 302.085 473.42 301.867 C 473.743 301.648 474.097 301.539 474.483 301.539 C 475.035 301.539 475.597 301.716 476.17 302.07 L 475.608 303.585 C 475.202 303.346 474.801 303.226 474.405 303.226 C 474.04 303.226 473.717 303.335 473.436 303.554 C 473.155 303.773 472.952 304.07 472.827 304.445 C 472.639 305.028 472.545 305.669 472.545 306.367 L 472.545 311.429 L 470.92 311.429 Z" fill-rule="nonzero"/>
    <path fill="#cfe2f3" d="M 307.627 325.501 L 487.627 325.501 L 487.627 367.486 L 307.627 367.486 Z" fill-rule="evenodd"/>
    <path stroke="#000000" stroke-width="1.0" stroke-linejoin="round" stroke-linecap="butt" d="M 307.627 325.501 L 487.627 325.501 L 487.627 367.486 L 307.627 367.486 Z" fill-rule="evenodd"/>
    <path fill="#000000" d="M 357.759 350.523 L 359.384 350.273 C 359.468 350.919 359.718 351.419 360.134 351.773 C 360.551 352.117 361.134 352.288 361.884 352.288 C 362.634 352.288 363.192 352.137 363.556 351.835 C 363.921 351.523 364.103 351.158 364.103 350.742 C 364.103 350.377 363.942 350.085 363.619 349.867 C 363.4 349.721 362.843 349.538 361.947 349.32 C 360.738 349.007 359.9 348.742 359.431 348.523 C 358.973 348.304 358.624 348.002 358.384 347.617 C 358.145 347.221 358.025 346.783 358.025 346.304 C 358.025 345.877 358.124 345.481 358.322 345.117 C 358.52 344.742 358.791 344.434 359.134 344.195 C 359.384 344.007 359.728 343.851 360.166 343.726 C 360.613 343.591 361.087 343.523 361.587 343.523 C 362.348 343.523 363.014 343.632 363.587 343.851 C 364.16 344.07 364.582 344.367 364.853 344.742 C 365.134 345.117 365.327 345.617 365.431 346.242 L 363.822 346.46 C 363.749 345.96 363.535 345.57 363.181 345.288 C 362.837 345.007 362.348 344.867 361.712 344.867 C 360.952 344.867 360.41 344.992 360.087 345.242 C 359.775 345.492 359.619 345.783 359.619 346.117 C 359.619 346.325 359.681 346.518 359.806 346.695 C 359.942 346.872 360.155 347.018 360.447 347.132 C 360.603 347.195 361.082 347.335 361.884 347.554 C 363.051 347.856 363.863 348.106 364.322 348.304 C 364.78 348.502 365.139 348.788 365.4 349.163 C 365.66 349.538 365.791 350.007 365.791 350.57 C 365.791 351.122 365.629 351.637 365.306 352.117 C 364.994 352.596 364.535 352.971 363.931 353.242 C 363.327 353.502 362.645 353.632 361.884 353.632 C 360.634 353.632 359.676 353.372 359.009 352.851 C 358.353 352.33 357.936 351.554 357.759 350.523 Z M 374.056 349.867 L 375.666 350.085 C 375.488 351.189 375.035 352.059 374.306 352.695 C 373.587 353.32 372.697 353.632 371.634 353.632 C 370.311 353.632 369.249 353.2 368.447 352.335 C 367.645 351.471 367.244 350.231 367.244 348.617 C 367.244 347.564 367.416 346.648 367.759 345.867 C 368.103 345.085 368.629 344.502 369.337 344.117 C 370.046 343.721 370.817 343.523 371.65 343.523 C 372.702 343.523 373.561 343.788 374.228 344.32 C 374.895 344.851 375.322 345.606 375.509 346.585 L 373.916 346.82 C 373.759 346.174 373.488 345.689 373.103 345.367 C 372.718 345.033 372.254 344.867 371.712 344.867 C 370.889 344.867 370.218 345.163 369.697 345.757 C 369.176 346.351 368.916 347.288 368.916 348.57 C 368.916 349.872 369.166 350.82 369.666 351.413 C 370.166 351.997 370.817 352.288 371.619 352.288 C 372.264 352.288 372.801 352.091 373.228 351.695 C 373.666 351.299 373.942 350.689 374.056 349.867 Z M 377.072 353.413 L 377.072 340.054 L 378.712 340.054 L 378.712 344.851 C 379.473 343.966 380.436 343.523 381.603 343.523 C 382.322 343.523 382.942 343.663 383.462 343.945 C 383.994 344.226 384.374 344.617 384.603 345.117 C 384.832 345.617 384.947 346.341 384.947 347.288 L 384.947 353.413 L 383.306 353.413 L 383.306 347.288 C 383.306 346.466 383.129 345.867 382.775 345.492 C 382.421 345.117 381.916 344.929 381.259 344.929 C 380.78 344.929 380.327 345.059 379.9 345.32 C 379.473 345.57 379.166 345.908 378.978 346.335 C 378.801 346.762 378.712 347.356 378.712 348.117 L 378.712 353.413 L 377.072 353.413 Z M 394.072 350.304 L 395.76 350.507 C 395.489 351.497 394.994 352.268 394.276 352.82 C 393.557 353.361 392.635 353.632 391.51 353.632 C 390.093 353.632 388.968 353.2 388.135 352.335 C 387.312 351.46 386.901 350.236 386.901 348.663 C 386.901 347.028 387.317 345.762 388.151 344.867 C 388.994 343.971 390.083 343.523 391.416 343.523 C 392.708 343.523 393.76 343.966 394.572 344.851 C 395.395 345.726 395.807 346.96 395.807 348.554 C 395.807 348.658 395.807 348.804 395.807 348.992 L 388.588 348.992 C 388.651 350.054 388.953 350.872 389.494 351.445 C 390.036 352.007 390.708 352.288 391.51 352.288 C 392.114 352.288 392.63 352.132 393.057 351.82 C 393.484 351.497 393.822 350.992 394.072 350.304 Z M 388.682 347.648 L 394.088 347.648 C 394.015 346.835 393.807 346.226 393.463 345.82 C 392.942 345.184 392.265 344.867 391.432 344.867 C 390.682 344.867 390.046 345.122 389.526 345.632 C 389.015 346.132 388.734 346.804 388.682 347.648 Z M 404.089 353.413 L 404.089 352.195 C 403.485 353.153 402.584 353.632 401.386 353.632 C 400.615 353.632 399.907 353.419 399.261 352.992 C 398.615 352.564 398.115 351.971 397.761 351.21 C 397.407 350.45 397.229 349.575 397.229 348.585 C 397.229 347.617 397.391 346.742 397.714 345.96 C 398.037 345.169 398.516 344.564 399.151 344.148 C 399.797 343.731 400.521 343.523 401.323 343.523 C 401.907 343.523 402.422 343.648 402.87 343.898 C 403.328 344.137 403.698 344.455 403.979 344.851 L 403.979 340.054 L 405.62 340.054 L 405.62 353.413 L 404.089 353.413 Z M 398.917 348.585 C 398.917 349.825 399.177 350.752 399.698 351.367 C 400.219 351.981 400.834 352.288 401.542 352.288 C 402.261 352.288 402.87 351.997 403.37 351.413 C 403.87 350.82 404.12 349.924 404.12 348.726 C 404.12 347.403 403.865 346.434 403.354 345.82 C 402.844 345.195 402.214 344.882 401.464 344.882 C 400.745 344.882 400.141 345.179 399.651 345.773 C 399.162 346.367 398.917 347.304 398.917 348.585 Z M 414.527 353.413 L 414.527 351.992 C 413.777 353.085 412.756 353.632 411.465 353.632 C 410.892 353.632 410.355 353.523 409.855 353.304 C 409.366 353.085 409.001 352.809 408.761 352.476 C 408.522 352.143 408.355 351.736 408.261 351.257 C 408.188 350.945 408.152 350.434 408.152 349.726 L 408.152 343.742 L 409.793 343.742 L 409.793 349.101 C 409.793 349.955 409.829 350.533 409.902 350.835 C 410.006 351.262 410.225 351.601 410.558 351.851 C 410.892 352.101 411.303 352.226 411.793 352.226 C 412.282 352.226 412.741 352.101 413.168 351.851 C 413.605 351.591 413.912 351.247 414.09 350.82 C 414.267 350.382 414.355 349.752 414.355 348.929 L 414.355 343.742 L 415.996 343.742 L 415.996 353.413 L 414.527 353.413 Z M 418.528 353.413 L 418.528 340.054 L 420.168 340.054 L 420.168 353.413 L 418.528 353.413 Z M 429.344 350.304 L 431.032 350.507 C 430.761 351.497 430.266 352.268 429.548 352.82 C 428.829 353.361 427.907 353.632 426.782 353.632 C 425.365 353.632 424.24 353.2 423.407 352.335 C 422.584 351.46 422.173 350.236 422.173 348.663 C 422.173 347.028 422.589 345.762 423.423 344.867 C 424.266 343.971 425.355 343.523 426.688 343.523 C 427.98 343.523 429.032 343.966 429.844 344.851 C 430.667 345.726 431.079 346.96 431.079 348.554 C 431.079 348.658 431.079 348.804 431.079 348.992 L 423.86 348.992 C 423.923 350.054 424.225 350.872 424.766 351.445 C 425.308 352.007 425.98 352.288 426.782 352.288 C 427.386 352.288 427.902 352.132 428.329 351.82 C 428.756 351.497 429.094 350.992 429.344 350.304 Z M 423.954 347.648 L 429.36 347.648 C 429.287 346.835 429.079 346.226 428.735 345.82 C 428.214 345.184 427.537 344.867 426.704 344.867 C 425.954 344.867 425.318 345.122 424.798 345.632 C 424.287 346.132 424.006 346.804 423.954 347.648 Z M 433.08 353.413 L 433.08 343.742 L 434.548 343.742 L 434.548 345.21 C 434.923 344.523 435.267 344.07 435.58 343.851 C 435.902 343.632 436.257 343.523 436.642 343.523 C 437.194 343.523 437.757 343.7 438.33 344.054 L 437.767 345.57 C 437.361 345.33 436.96 345.21 436.564 345.21 C 436.199 345.21 435.876 345.32 435.595 345.538 C 435.314 345.757 435.111 346.054 434.986 346.429 C 434.798 347.012 434.705 347.653 434.705 348.351 L 434.705 353.413 L 433.08 353.413 Z" fill-rule="nonzero"/>
    <path fill="#000000" fill-opacity="0.0" d="M 397.629 241.984 L 397.629 214.746 L 397.692 214.746 L 397.692 187.496" fill-rule="evenodd"/>
    <path fill="#000000" fill-opacity="0.0" d="M 272.508 208.26 L 403.5 208.26 L 403.5 239 L 272.508 239 Z" fill-rule="evenodd"/>
    <path fill="#000000" d="M 286.899 227.529 L 288.055 227.685 C 287.93 228.477 287.607 229.096 287.086 229.544 C 286.565 229.992 285.925 230.216 285.164 230.216 C 284.227 230.216 283.466 229.909 282.883 229.294 C 282.31 228.669 282.024 227.784 282.024 226.638 C 282.024 225.888 282.149 225.232 282.399 224.669 C 282.649 224.107 283.024 223.69 283.524 223.419 C 284.034 223.138 284.586 222.997 285.18 222.997 C 285.93 222.997 286.544 223.19 287.024 223.575 C 287.503 223.95 287.81 224.487 287.945 225.185 L 286.805 225.357 C 286.69 224.888 286.492 224.539 286.211 224.31 C 285.94 224.07 285.612 223.95 285.227 223.95 C 284.633 223.95 284.149 224.164 283.774 224.591 C 283.409 225.018 283.227 225.685 283.227 226.591 C 283.227 227.529 283.404 228.206 283.758 228.622 C 284.122 229.039 284.591 229.247 285.164 229.247 C 285.622 229.247 286.003 229.107 286.305 228.825 C 286.617 228.544 286.815 228.112 286.899 227.529 Z M 288.609 226.607 C 288.609 225.325 288.969 224.378 289.688 223.763 C 290.281 223.253 291.005 222.997 291.859 222.997 C 292.807 222.997 293.583 223.31 294.188 223.935 C 294.792 224.549 295.094 225.409 295.094 226.513 C 295.094 227.398 294.958 228.096 294.688 228.607 C 294.427 229.117 294.042 229.513 293.531 229.794 C 293.021 230.075 292.464 230.216 291.859 230.216 C 290.891 230.216 290.104 229.909 289.5 229.294 C 288.906 228.669 288.609 227.773 288.609 226.607 Z M 289.813 226.607 C 289.813 227.492 290.005 228.154 290.391 228.591 C 290.787 229.029 291.276 229.247 291.859 229.247 C 292.443 229.247 292.927 229.029 293.313 228.591 C 293.698 228.143 293.891 227.466 293.891 226.56 C 293.891 225.706 293.693 225.06 293.297 224.622 C 292.912 224.185 292.432 223.966 291.859 223.966 C 291.276 223.966 290.787 224.185 290.391 224.622 C 290.005 225.06 289.813 225.721 289.813 226.607 Z M 296.459 230.06 L 296.459 223.154 L 297.522 223.154 L 297.522 224.138 C 298.022 223.378 298.751 222.997 299.709 222.997 C 300.126 222.997 300.511 223.07 300.866 223.216 C 301.22 223.362 301.48 223.56 301.647 223.81 C 301.824 224.049 301.949 224.336 302.022 224.669 C 302.064 224.888 302.084 225.268 302.084 225.81 L 302.084 230.06 L 300.913 230.06 L 300.913 225.857 C 300.913 225.378 300.866 225.023 300.772 224.794 C 300.678 224.555 300.517 224.367 300.288 224.232 C 300.058 224.086 299.788 224.013 299.475 224.013 C 298.975 224.013 298.543 224.169 298.178 224.482 C 297.814 224.794 297.631 225.393 297.631 226.279 L 297.631 230.06 L 296.459 230.06 Z M 306.434 229.013 L 306.606 230.044 C 306.273 230.117 305.976 230.154 305.716 230.154 C 305.289 230.154 304.955 230.086 304.716 229.95 C 304.486 229.815 304.325 229.638 304.231 229.419 C 304.138 229.2 304.091 228.737 304.091 228.029 L 304.091 224.06 L 303.231 224.06 L 303.231 223.154 L 304.091 223.154 L 304.091 221.435 L 305.263 220.732 L 305.263 223.154 L 306.434 223.154 L 306.434 224.06 L 305.263 224.06 L 305.263 228.107 C 305.263 228.44 305.278 228.654 305.309 228.747 C 305.351 228.841 305.419 228.919 305.513 228.982 C 305.606 229.034 305.742 229.06 305.919 229.06 C 306.054 229.06 306.226 229.044 306.434 229.013 Z M 307.559 230.06 L 307.559 223.154 L 308.622 223.154 L 308.622 224.2 C 308.893 223.711 309.137 223.388 309.356 223.232 C 309.585 223.075 309.841 222.997 310.122 222.997 C 310.518 222.997 310.919 223.122 311.325 223.372 L 310.919 224.45 C 310.627 224.284 310.341 224.2 310.059 224.2 C 309.799 224.2 309.564 224.279 309.356 224.435 C 309.158 224.591 309.018 224.805 308.934 225.075 C 308.799 225.492 308.731 225.945 308.731 226.435 L 308.731 230.06 L 307.559 230.06 Z M 311.576 226.607 C 311.576 225.325 311.935 224.378 312.654 223.763 C 313.248 223.253 313.972 222.997 314.826 222.997 C 315.774 222.997 316.55 223.31 317.154 223.935 C 317.758 224.549 318.06 225.409 318.06 226.513 C 318.06 227.398 317.925 228.096 317.654 228.607 C 317.393 229.117 317.008 229.513 316.498 229.794 C 315.987 230.075 315.43 230.216 314.826 230.216 C 313.857 230.216 313.071 229.909 312.466 229.294 C 311.873 228.669 311.576 227.773 311.576 226.607 Z M 312.779 226.607 C 312.779 227.492 312.972 228.154 313.357 228.591 C 313.753 229.029 314.242 229.247 314.826 229.247 C 315.409 229.247 315.893 229.029 316.279 228.591 C 316.664 228.143 316.857 227.466 316.857 226.56 C 316.857 225.706 316.659 225.06 316.263 224.622 C 315.878 224.185 315.399 223.966 314.826 223.966 C 314.242 223.966 313.753 224.185 313.357 224.622 C 312.972 225.06 312.779 225.721 312.779 226.607 Z M 319.41 230.06 L 319.41 220.513 L 320.582 220.513 L 320.582 230.06 L 319.41 230.06 Z M 326.09 232.716 L 326.09 223.154 L 327.168 223.154 L 327.168 224.044 C 327.418 223.69 327.699 223.43 328.012 223.263 C 328.335 223.086 328.72 222.997 329.168 222.997 C 329.751 222.997 330.267 223.148 330.715 223.45 C 331.173 223.753 331.517 224.18 331.746 224.732 C 331.975 225.284 332.09 225.893 332.09 226.56 C 332.09 227.258 331.965 227.893 331.715 228.466 C 331.465 229.029 331.095 229.461 330.605 229.763 C 330.126 230.065 329.616 230.216 329.074 230.216 C 328.689 230.216 328.34 230.133 328.027 229.966 C 327.715 229.799 327.46 229.591 327.262 229.341 L 327.262 232.716 L 326.09 232.716 Z M 327.152 226.638 C 327.152 227.534 327.329 228.195 327.684 228.622 C 328.048 229.039 328.486 229.247 328.996 229.247 C 329.517 229.247 329.965 229.029 330.34 228.591 C 330.715 228.154 330.902 227.471 330.902 226.544 C 330.902 225.669 330.72 225.013 330.355 224.575 C 329.991 224.128 329.559 223.904 329.059 223.904 C 328.559 223.904 328.116 224.138 327.73 224.607 C 327.345 225.075 327.152 225.753 327.152 226.638 Z M 333.487 230.06 L 333.487 220.513 L 334.659 220.513 L 334.659 230.06 L 333.487 230.06 Z M 340.979 229.2 C 340.542 229.575 340.12 229.841 339.713 229.997 C 339.318 230.143 338.89 230.216 338.432 230.216 C 337.672 230.216 337.088 230.034 336.682 229.669 C 336.276 229.294 336.073 228.815 336.073 228.232 C 336.073 227.898 336.146 227.591 336.292 227.31 C 336.448 227.029 336.651 226.805 336.901 226.638 C 337.151 226.471 337.432 226.341 337.745 226.247 C 337.974 226.195 338.323 226.138 338.792 226.075 C 339.739 225.961 340.437 225.825 340.885 225.669 C 340.885 225.513 340.885 225.414 340.885 225.372 C 340.885 224.893 340.776 224.555 340.557 224.357 C 340.255 224.096 339.807 223.966 339.213 223.966 C 338.672 223.966 338.265 224.065 337.995 224.263 C 337.734 224.45 337.542 224.789 337.417 225.279 L 336.276 225.122 C 336.38 224.633 336.552 224.237 336.792 223.935 C 337.031 223.633 337.375 223.404 337.823 223.247 C 338.271 223.081 338.792 222.997 339.385 222.997 C 339.979 222.997 340.458 223.065 340.823 223.2 C 341.198 223.336 341.469 223.513 341.635 223.732 C 341.812 223.94 341.937 224.206 342.01 224.529 C 342.042 224.727 342.057 225.086 342.057 225.607 L 342.057 227.169 C 342.057 228.253 342.083 228.94 342.135 229.232 C 342.187 229.523 342.286 229.799 342.432 230.06 L 341.213 230.06 C 341.088 229.82 341.01 229.534 340.979 229.2 Z M 340.885 226.591 C 340.458 226.768 339.818 226.914 338.963 227.029 C 338.484 227.102 338.146 227.185 337.948 227.279 C 337.75 227.362 337.594 227.487 337.479 227.654 C 337.375 227.82 337.323 228.003 337.323 228.2 C 337.323 228.513 337.437 228.773 337.667 228.982 C 337.906 229.19 338.255 229.294 338.713 229.294 C 339.161 229.294 339.562 229.195 339.917 228.997 C 340.271 228.799 340.531 228.529 340.698 228.185 C 340.823 227.924 340.885 227.534 340.885 227.013 L 340.885 226.591 Z M 343.876 230.06 L 343.876 223.154 L 344.938 223.154 L 344.938 224.138 C 345.438 223.378 346.168 222.997 347.126 222.997 C 347.543 222.997 347.928 223.07 348.282 223.216 C 348.636 223.362 348.897 223.56 349.063 223.81 C 349.24 224.049 349.365 224.336 349.438 224.669 C 349.48 224.888 349.501 225.268 349.501 225.81 L 349.501 230.06 L 348.329 230.06 L 348.329 225.857 C 348.329 225.378 348.282 225.023 348.188 224.794 C 348.095 224.555 347.933 224.367 347.704 224.232 C 347.475 224.086 347.204 224.013 346.891 224.013 C 346.391 224.013 345.959 224.169 345.595 224.482 C 345.23 224.794 345.048 225.393 345.048 226.279 L 345.048 230.06 L 343.876 230.06 Z M 356.023 227.841 L 357.226 227.982 C 357.038 228.69 356.684 229.242 356.163 229.638 C 355.653 230.023 354.997 230.216 354.195 230.216 C 353.184 230.216 352.382 229.904 351.788 229.279 C 351.195 228.654 350.898 227.784 350.898 226.669 C 350.898 225.503 351.195 224.602 351.788 223.966 C 352.392 223.32 353.174 222.997 354.132 222.997 C 355.059 222.997 355.814 223.31 356.398 223.935 C 356.981 224.56 357.273 225.445 357.273 226.591 C 357.273 226.664 357.273 226.768 357.273 226.904 L 352.116 226.904 C 352.158 227.664 352.372 228.247 352.757 228.654 C 353.142 229.049 353.622 229.247 354.195 229.247 C 354.632 229.247 355.002 229.138 355.304 228.919 C 355.606 228.69 355.846 228.331 356.023 227.841 Z M 352.179 225.935 L 356.038 225.935 C 355.986 225.362 355.84 224.93 355.601 224.638 C 355.226 224.18 354.741 223.95 354.148 223.95 C 353.606 223.95 353.153 224.133 352.788 224.497 C 352.424 224.852 352.221 225.331 352.179 225.935 Z M 362.404 230.06 L 362.404 223.154 L 363.466 223.154 L 363.466 224.138 C 363.966 223.378 364.695 222.997 365.654 222.997 C 366.07 222.997 366.456 223.07 366.81 223.216 C 367.164 223.362 367.425 223.56 367.591 223.81 C 367.768 224.049 367.893 224.336 367.966 224.669 C 368.008 224.888 368.029 225.268 368.029 225.81 L 368.029 230.06 L 366.857 230.06 L 366.857 225.857 C 366.857 225.378 366.81 225.023 366.716 224.794 C 366.623 224.555 366.461 224.367 366.232 224.232 C 366.003 224.086 365.732 224.013 365.419 224.013 C 364.919 224.013 364.487 224.169 364.123 224.482 C 363.758 224.794 363.576 225.393 363.576 226.279 L 363.576 230.06 L 362.404 230.06 Z M 369.379 226.607 C 369.379 225.325 369.738 224.378 370.457 223.763 C 371.051 223.253 371.775 222.997 372.629 222.997 C 373.577 222.997 374.353 223.31 374.957 223.935 C 375.561 224.549 375.863 225.409 375.863 226.513 C 375.863 227.398 375.728 228.096 375.457 228.607 C 375.196 229.117 374.811 229.513 374.301 229.794 C 373.79 230.075 373.233 230.216 372.629 230.216 C 371.66 230.216 370.874 229.909 370.269 229.294 C 369.676 228.669 369.379 227.773 369.379 226.607 Z M 370.582 226.607 C 370.582 227.492 370.775 228.154 371.16 228.591 C 371.556 229.029 372.045 229.247 372.629 229.247 C 373.212 229.247 373.696 229.029 374.082 228.591 C 374.467 228.143 374.66 227.466 374.66 226.56 C 374.66 225.706 374.462 225.06 374.066 224.622 C 373.681 224.185 373.202 223.966 372.629 223.966 C 372.045 223.966 371.556 224.185 371.16 224.622 C 370.775 225.06 370.582 225.721 370.582 226.607 Z M 381.713 230.06 L 381.713 229.185 C 381.276 229.872 380.63 230.216 379.776 230.216 C 379.234 230.216 378.729 230.065 378.26 229.763 C 377.802 229.461 377.442 229.039 377.182 228.497 C 376.932 227.945 376.807 227.315 376.807 226.607 C 376.807 225.919 376.921 225.294 377.151 224.732 C 377.38 224.169 377.724 223.742 378.182 223.45 C 378.651 223.148 379.166 222.997 379.729 222.997 C 380.145 222.997 380.515 223.086 380.838 223.263 C 381.171 223.43 381.437 223.654 381.635 223.935 L 381.635 220.513 L 382.807 220.513 L 382.807 230.06 L 381.713 230.06 Z M 378.01 226.607 C 378.01 227.492 378.197 228.154 378.572 228.591 C 378.947 229.029 379.39 229.247 379.901 229.247 C 380.411 229.247 380.843 229.039 381.197 228.622 C 381.552 228.206 381.729 227.57 381.729 226.716 C 381.729 225.768 381.546 225.075 381.182 224.638 C 380.817 224.19 380.369 223.966 379.838 223.966 C 379.317 223.966 378.88 224.18 378.526 224.607 C 378.182 225.023 378.01 225.69 378.01 226.607 Z M 389.376 227.841 L 390.579 227.982 C 390.391 228.69 390.037 229.242 389.516 229.638 C 389.006 230.023 388.35 230.216 387.547 230.216 C 386.537 230.216 385.735 229.904 385.141 229.279 C 384.547 228.654 384.251 227.784 384.251 226.669 C 384.251 225.503 384.547 224.602 385.141 223.966 C 385.745 223.32 386.527 222.997 387.485 222.997 C 388.412 222.997 389.167 223.31 389.751 223.935 C 390.334 224.56 390.626 225.445 390.626 226.591 C 390.626 226.664 390.626 226.768 390.626 226.904 L 385.469 226.904 C 385.511 227.664 385.725 228.247 386.11 228.654 C 386.495 229.049 386.975 229.247 387.547 229.247 C 387.985 229.247 388.355 229.138 388.657 228.919 C 388.959 228.69 389.198 228.331 389.376 227.841 Z M 385.532 225.935 L 389.391 225.935 C 389.339 225.362 389.193 224.93 388.954 224.638 C 388.579 224.18 388.094 223.95 387.501 223.95 C 386.959 223.95 386.506 224.133 386.141 224.497 C 385.777 224.852 385.573 225.331 385.532 225.935 Z" fill-rule="nonzero"/>
    <path fill="#fce5cd" d="m52.11155 64.46457l126.015755 0l0 46.04724l-126.015755 0z" fill-rule="evenodd"/>
    <path stroke="#000000" stroke-width="1.0" stroke-linejoin="round" stroke-linecap="butt" d="m52.11155 64.46457l126.015755 0l0 46.04724l-126.015755 0z" fill-rule="evenodd"/>
    <path fill="#000000" d="m66.80303 94.40819l-2.96875 -9.671875l1.703125 0l1.53125 5.578125l0.578125 2.078125q0.046875 -0.15625 0.5 -2.0l1.546875 -5.65625l1.6875 0l1.4375 5.609375l0.484375 1.84375l0.5625 -1.859375l1.65625 -5.59375l1.59375 0l-3.03125 9.671875l-1.703125 0l-1.53125 -5.796875l-0.375 -1.640625l-1.953125 7.4375l-1.71875 0zm11.082321 -4.84375q0 -2.6875 1.484375 -3.96875q1.25 -1.078125 3.046875 -1.078125q2.0 0 3.265625 1.3125q1.265625 1.296875 1.265625 3.609375q0 1.859375 -0.5625 2.9375q-0.5625 1.0625 -1.640625 1.65625q-1.0625 0.59375 -2.328125 0.59375q-2.03125 0 -3.28125 -1.296875q-1.25 -1.3125 -1.25 -3.765625zm1.6875 0q0 1.859375 0.796875 2.796875q0.8125 0.921875 2.046875 0.921875q1.21875 0 2.03125 -0.921875q0.8125 -0.9375 0.8125 -2.84375q0 -1.796875 -0.8125 -2.71875q-0.8125 -0.921875 -2.03125 -0.921875q-1.234375 0 -2.046875 0.921875q-0.796875 0.90625 -0.796875 2.765625zm9.281967 4.84375l0 -9.671875l1.46875 0l0 1.46875q0.5625 -1.03125 1.03125 -1.359375q0.484375 -0.328125 1.0625 -0.328125q0.828125 0 1.6875 0.53125l-0.5625 1.515625q-0.609375 -0.359375 -1.203125 -0.359375q-0.546875 0 -0.96875 0.328125q-0.421875 0.328125 -0.609375 0.890625q-0.28125 0.875 -0.28125 1.921875l0 5.0625l-1.625 0zm6.228302 0l0 -13.359375l1.640625 0l0 7.625l3.890625 -3.9375l2.109375 0l-3.6875 3.59375l4.0625 6.078125l-2.015625 0l-3.203125 -4.953125l-1.15625 1.125l0 3.828125l-1.640625 0zm15.953125 -3.109375l1.6875 0.203125q-0.40625 1.484375 -1.484375 2.3125q-1.078125 0.8125 -2.765625 0.8125q-2.125 0 -3.375 -1.296875q-1.234375 -1.3125 -1.234375 -3.671875q0 -2.453125 1.25 -3.796875q1.265625 -1.34375 3.265625 -1.34375q1.9375 0 3.15625 1.328125q1.234375 1.3125 1.234375 3.703125q0 0.15625 0 0.4375l-7.21875 0q0.09375 1.59375 0.90625 2.453125q0.8125 0.84375 2.015625 0.84375q0.90625 0 1.546875 -0.46875q0.640625 -0.484375 1.015625 -1.515625zm-5.390625 -2.65625l5.40625 0q-0.109375 -1.21875 -0.625 -1.828125q-0.78125 -0.953125 -2.03125 -0.953125q-1.125 0 -1.90625 0.765625q-0.765625 0.75 -0.84375 2.015625zm9.125717 5.765625l0 -9.671875l1.46875 0l0 1.46875q0.5625 -1.03125 1.03125 -1.359375q0.484375 -0.328125 1.0625 -0.328125q0.828125 0 1.6875 0.53125l-0.5625 1.515625q-0.609375 -0.359375 -1.203125 -0.359375q-0.546875 0 -0.96875 0.328125q-0.421875 0.328125 -0.609375 0.890625q-0.28125 0.875 -0.28125 1.921875l0 5.0625l-1.625 0zm11.411606 0l0 -9.671875l1.46875 0l0 1.375q1.0624924 -1.59375 3.0781174 -1.59375q0.875 0 1.609375 0.3125q0.734375 0.3125 1.09375 0.828125q0.375 0.5 0.515625 1.203125q0.09375 0.453125 0.09375 1.59375l0 5.953125l-1.640625 0l0 -5.890625q0 -1.0 -0.203125 -1.484375q-0.1875 -0.5 -0.671875 -0.796875q-0.484375 -0.296875 -1.140625 -0.296875q-1.046875 0 -1.8125 0.671875q-0.7499924 0.65625 -0.7499924 2.515625l0 5.28125l-1.640625 0zm9.766335 -4.84375q0 -2.6875 1.484375 -3.96875q1.25 -1.078125 3.046875 -1.078125q2.0 0 3.265625 1.3125q1.265625 1.296875 1.265625 3.609375q0 1.859375 -0.5625 2.9375q-0.5625 1.0625 -1.640625 1.65625q-1.0625 0.59375 -2.328125 0.59375q-2.03125 0 -3.28125 -1.296875q-1.25 -1.3125 -1.25 -3.765625zm1.6875 0q0 1.859375 0.796875 2.796875q0.8125 0.921875 2.046875 0.921875q1.21875 0 2.03125 -0.921875q0.8125 -0.9375 0.8125 -2.84375q0 -1.796875 -0.8125 -2.71875q-0.8125 -0.921875 -2.03125 -0.921875q-1.234375 0 -2.046875 0.921875q-0.796875 0.90625 -0.796875 2.765625zm15.563217 4.84375l0 -1.21875q-0.90625 1.4375 -2.703125 1.4375q-1.15625 0 -2.125 -0.640625q-0.96875 -0.640625 -1.5 -1.78125q-0.53125 -1.140625 -0.53125 -2.625q0 -1.453125 0.484375 -2.625q0.484375 -1.1875 1.4375 -1.8125q0.96875 -0.625 2.171875 -0.625q0.875 0 1.546875 0.375q0.6875 0.359375 1.109375 0.953125l0 -4.796875l1.640625 0l0 13.359375l-1.53125 0zm-5.171875 -4.828125q0 1.859375 0.78125 2.78125q0.78125 0.921875 1.84375 0.921875q1.078125 0 1.828125 -0.875q0.75 -0.890625 0.75 -2.6875q0 -1.984375 -0.765625 -2.90625q-0.765625 -0.9375 -1.890625 -0.9375q-1.078125 0 -1.8125 0.890625q-0.734375 0.890625 -0.734375 2.8125zm15.906967 1.71875l1.6875 0.203125q-0.40625 1.484375 -1.484375 2.3125q-1.078125 0.8125 -2.765625 0.8125q-2.125 0 -3.375 -1.296875q-1.234375 -1.3125 -1.234375 -3.671875q0 -2.453125 1.25 -3.796875q1.265625 -1.34375 3.265625 -1.34375q1.9375 0 3.15625 1.328125q1.234375 1.3125 1.234375 3.703125q0 0.15625 0 0.4375l-7.21875 0q0.09375 1.59375 0.90625 2.453125q0.8125 0.84375 2.015625 0.84375q0.90625 0 1.546875 -0.46875q0.640625 -0.484375 1.015625 -1.515625zm-5.390625 -2.65625l5.40625 0q-0.109375 -1.21875 -0.625 -1.828125q-0.78125 -0.953125 -2.03125 -0.953125q-1.125 0 -1.90625 0.765625q-0.765625 0.75 -0.84375 2.015625z" fill-rule="nonzero"/>
    <path fill="#fce5cd" d="m193.11154 64.46457l126.01575 0l0 46.04724l-126.01575 0z" fill-rule="evenodd"/>
    <path stroke="#000000" stroke-width="1.0" stroke-linejoin="round" stroke-linecap="butt" d="m193.11154 64.46457l126.01575 0l0 46.04724l-126.01575 0z" fill-rule="evenodd"/>
    <path fill="#000000" d="m207.80302 94.40819l-2.96875 -9.671875l1.703125 0l1.53125 5.578125l0.578125 2.078125q0.046875 -0.15625 0.5 -2.0l1.546875 -5.65625l1.6875 0l1.4375 5.609375l0.484375 1.84375l0.5625 -1.859375l1.65625 -5.59375l1.59375 0l-3.03125 9.671875l-1.703125 0l-1.53125 -5.796875l-0.375 -1.640625l-1.953125 7.4375l-1.71875 0zm11.082321 -4.84375q0 -2.6875 1.484375 -3.96875q1.25 -1.078125 3.046875 -1.078125q2.0 0 3.265625 1.3125q1.265625 1.296875 1.265625 3.609375q0 1.859375 -0.5625 2.9375q-0.5625 1.0625 -1.640625 1.65625q-1.0625 0.59375 -2.328125 0.59375q-2.03125 0 -3.28125 -1.296875q-1.25 -1.3125 -1.25 -3.765625zm1.6875 0q0 1.859375 0.796875 2.796875q0.8125 0.921875 2.046875 0.921875q1.21875 0 2.03125 -0.921875q0.8125 -0.9375 0.8125 -2.84375q0 -1.796875 -0.8125 -2.71875q-0.8125 -0.921875 -2.03125 -0.921875q-1.234375 0 -2.046875 0.921875q-0.796875 0.90625 -0.796875 2.765625zm9.281967 4.84375l0 -9.671875l1.46875 0l0 1.46875q0.5625 -1.03125 1.03125 -1.359375q0.484375 -0.328125 1.0625 -0.328125q0.828125 0 1.6875 0.53125l-0.5625 1.515625q-0.609375 -0.359375 -1.203125 -0.359375q-0.546875 0 -0.96875 0.328125q-0.421875 0.328125 -0.609375 0.890625q-0.28125 0.875 -0.28125 1.921875l0 5.0625l-1.625 0zm6.228302 0l0 -13.359375l1.640625 0l0 7.625l3.890625 -3.9375l2.109375 0l-3.6875 3.59375l4.0625 6.078125l-2.015625 0l-3.203125 -4.953125l-1.15625 1.125l0 3.828125l-1.640625 0zm15.953125 -3.109375l1.6875 0.203125q-0.40625 1.484375 -1.484375 2.3125q-1.078125 0.8125 -2.765625 0.8125q-2.125 0 -3.375 -1.296875q-1.234375 -1.3125 -1.234375 -3.671875q0 -2.453125 1.25 -3.796875q1.265625 -1.34375 3.265625 -1.34375q1.9375 0 3.15625 1.328125q1.234375 1.3125 1.234375 3.703125q0 0.15625 0 0.4375l-7.21875 0q0.09375 1.59375 0.90625 2.453125q0.8125 0.84375 2.015625 0.84375q0.90625 0 1.546875 -0.46875q0.640625 -0.484375 1.015625 -1.515625zm-5.390625 -2.65625l5.40625 0q-0.109375 -1.21875 -0.625 -1.828125q-0.78125 -0.953125 -2.03125 -0.953125q-1.125 0 -1.90625 0.765625q-0.765625 0.75 -0.84375 2.015625zm9.125717 5.765625l0 -9.671875l1.46875 0l0 1.46875q0.5625 -1.03125 1.03125 -1.359375q0.484375 -0.328125 1.0625 -0.328125q0.828125 0 1.6875 0.53125l-0.5625 1.515625q-0.609375 -0.359375 -1.203125 -0.359375q-0.546875 0 -0.96875 0.328125q-0.421875 0.328125 -0.609375 0.890625q-0.28125 0.875 -0.28125 1.921875l0 5.0625l-1.625 0zm11.411621 0l0 -9.671875l1.46875 0l0 1.375q1.0625 -1.59375 3.078125 -1.59375q0.875 0 1.609375 0.3125q0.734375 0.3125 1.09375 0.828125q0.375 0.5 0.515625 1.203125q0.09375 0.453125 0.09375 1.59375l0 5.953125l-1.640625 0l0 -5.890625q0 -1.0 -0.203125 -1.484375q-0.1875 -0.5 -0.671875 -0.796875q-0.484375 -0.296875 -1.140625 -0.296875q-1.046875 0 -1.8125 0.671875q-0.75 0.65625 -0.75 2.515625l0 5.28125l-1.640625 0zm9.766327 -4.84375q0 -2.6875 1.484375 -3.96875q1.25 -1.078125 3.046875 -1.078125q2.0 0 3.265625 1.3125q1.265625 1.296875 1.265625 3.609375q0 1.859375 -0.5625 2.9375q-0.5625 1.0625 -1.640625 1.65625q-1.0625 0.59375 -2.328125 0.59375q-2.03125 0 -3.28125 -1.296875q-1.25 -1.3125 -1.25 -3.765625zm1.6875 0q0 1.859375 0.796875 2.796875q0.8125 0.921875 2.046875 0.921875q1.21875 0 2.03125 -0.921875q0.8125 -0.9375 0.8125 -2.84375q0 -1.796875 -0.8125 -2.71875q-0.8125 -0.921875 -2.03125 -0.921875q-1.234375 0 -2.046875 0.921875q-0.796875 0.90625 -0.796875 2.765625zm15.563232 4.84375l0 -1.21875q-0.90625 1.4375 -2.703125 1.4375q-1.15625 0 -2.125 -0.640625q-0.96875 -0.640625 -1.5 -1.78125q-0.53125 -1.140625 -0.53125 -2.625q0 -1.453125 0.484375 -2.625q0.484375 -1.1875 1.4375 -1.8125q0.96875 -0.625 2.171875 -0.625q0.875 0 1.546875 0.375q0.6875 0.359375 1.109375 0.953125l0 -4.796875l1.640625 0l0 13.359375l-1.53125 0zm-5.171875 -4.828125q0 1.859375 0.78125 2.78125q0.78125 0.921875 1.84375 0.921875q1.078125 0 1.828125 -0.875q0.75 -0.890625 0.75 -2.6875q0 -1.984375 -0.765625 -2.90625q-0.765625 -0.9375 -1.890625 -0.9375q-1.078125 0 -1.8125 0.890625q-0.734375 0.890625 -0.734375 2.8125zm15.906952 1.71875l1.6875 0.203125q-0.40625 1.484375 -1.484375 2.3125q-1.078125 0.8125 -2.765625 0.8125q-2.125 0 -3.375 -1.296875q-1.234375 -1.3125 -1.234375 -3.671875q0 -2.453125 1.25 -3.796875q1.265625 -1.34375 3.265625 -1.34375q1.9375 0 3.15625 1.328125q1.234375 1.3125 1.234375 3.703125q0 0.15625 0 0.4375l-7.21875 0q0.09375 1.59375 0.90625 2.453125q0.8125 0.84375 2.015625 0.84375q0.90625 0 1.546875 -0.46875q0.640625 -0.484375 1.015625 -1.515625zm-5.390625 -2.65625l5.40625 0q-0.109375 -1.21875 -0.625 -1.828125q-0.78125 -0.953125 -2.03125 -0.953125q-1.125 0 -1.90625 0.765625q-0.765625 0.75 -0.84375 2.015625z" fill-rule="nonzero"/>
    <path fill="#fce5cd" d="m335.1273 64.46457l126.01575 0l0 46.04724l-126.01575 0z" fill-rule="evenodd"/>
    <path stroke="#000000" stroke-width="1.0" stroke-linejoin="round" stroke-linecap="butt" d="m335.1273 64.46457l126.01575 0l0 46.04724l-126.01575 0z" fill-rule="evenodd"/>
    <path fill="#000000" d="m349.8188 94.40819l-2.96875 -9.671875l1.703125 0l1.53125 5.578125l0.578125 2.078125q0.046875 -0.15625 0.5 -2.0l1.546875 -5.65625l1.6875 0l1.4375 5.609375l0.484375 1.84375l0.5625 -1.859375l1.65625 -5.59375l1.59375 0l-3.03125 9.671875l-1.703125 0l-1.53125 -5.796875l-0.375 -1.640625l-1.953125 7.4375l-1.71875 0zm11.082306 -4.84375q0 -2.6875 1.484375 -3.96875q1.25 -1.078125 3.046875 -1.078125q2.0 0 3.265625 1.3125q1.265625 1.296875 1.265625 3.609375q0 1.859375 -0.5625 2.9375q-0.5625 1.0625 -1.640625 1.65625q-1.0625 0.59375 -2.328125 0.59375q-2.03125 0 -3.28125 -1.296875q-1.25 -1.3125 -1.25 -3.765625zm1.6875 0q0 1.859375 0.796875 2.796875q0.8125 0.921875 2.046875 0.921875q1.21875 0 2.03125 -0.921875q0.8125 -0.9375 0.8125 -2.84375q0 -1.796875 -0.8125 -2.71875q-0.8125 -0.921875 -2.03125 -0.921875q-1.234375 0 -2.046875 0.921875q-0.796875 0.90625 -0.796875 2.765625zm9.281982 4.84375l0 -9.671875l1.46875 0l0 1.46875q0.5625 -1.03125 1.03125 -1.359375q0.484375 -0.328125 1.0625 -0.328125q0.828125 0 1.6875 0.53125l-0.5625 1.515625q-0.609375 -0.359375 -1.203125 -0.359375q-0.546875 0 -0.96875 0.328125q-0.421875 0.328125 -0.609375 0.890625q-0.28125 0.875 -0.28125 1.921875l0 5.0625l-1.625 0zm6.228302 0l0 -13.359375l1.640625 0l0 7.625l3.890625 -3.9375l2.109375 0l-3.6875 3.59375l4.0625 6.078125l-2.015625 0l-3.203125 -4.953125l-1.15625 1.125l0 3.828125l-1.640625 0zm15.953125 -3.109375l1.6875 0.203125q-0.40625 1.484375 -1.484375 2.3125q-1.078125 0.8125 -2.765625 0.8125q-2.125 0 -3.375 -1.296875q-1.234375 -1.3125 -1.234375 -3.671875q0 -2.453125 1.25 -3.796875q1.265625 -1.34375 3.265625 -1.34375q1.9375 0 3.15625 1.328125q1.234375 1.3125 1.234375 3.703125q0 0.15625 0 0.4375l-7.21875 0q0.09375 1.59375 0.90625 2.453125q0.8125 0.84375 2.015625 0.84375q0.90625 0 1.546875 -0.46875q0.640625 -0.484375 1.015625 -1.515625zm-5.390625 -2.65625l5.40625 0q-0.109375 -1.21875 -0.625 -1.828125q-0.78125 -0.953125 -2.03125 -0.953125q-1.125 0 -1.90625 0.765625q-0.765625 0.75 -0.84375 2.015625zm9.125702 5.765625l0 -9.671875l1.46875 0l0 1.46875q0.5625 -1.03125 1.03125 -1.359375q0.484375 -0.328125 1.0625 -0.328125q0.828125 0 1.6875 0.53125l-0.5625 1.515625q-0.609375 -0.359375 -1.203125 -0.359375q-0.546875 0 -0.96875 0.328125q-0.421875 0.328125 -0.609375 0.890625q-0.28125 0.875 -0.28125 1.921875l0 5.0625l-1.625 0zm11.411621 0l0 -9.671875l1.46875 0l0 1.375q1.0625 -1.59375 3.078125 -1.59375q0.875 0 1.609375 0.3125q0.734375 0.3125 1.09375 0.828125q0.375 0.5 0.515625 1.203125q0.09375 0.453125 0.09375 1.59375l0 5.953125l-1.640625 0l0 -5.890625q0 -1.0 -0.203125 -1.484375q-0.1875 -0.5 -0.671875 -0.796875q-0.484375 -0.296875 -1.140625 -0.296875q-1.046875 0 -1.8125 0.671875q-0.75 0.65625 -0.75 2.515625l0 5.28125l-1.640625 0zm9.766327 -4.84375q0 -2.6875 1.484375 -3.96875q1.25 -1.078125 3.046875 -1.078125q2.0 0 3.265625 1.3125q1.265625 1.296875 1.265625 3.609375q0 1.859375 -0.5625 2.9375q-0.5625 1.0625 -1.640625 1.65625q-1.0625 0.59375 -2.328125 0.59375q-2.03125 0 -3.28125 -1.296875q-1.25 -1.3125 -1.25 -3.765625zm1.6875 0q0 1.859375 0.796875 2.796875q0.8125 0.921875 2.046875 0.921875q1.21875 0 2.03125 -0.921875q0.8125 -0.9375 0.8125 -2.84375q0 -1.796875 -0.8125 -2.71875q-0.8125 -0.921875 -2.03125 -0.921875q-1.234375 0 -2.046875 0.921875q-0.796875 0.90625 -0.796875 2.765625zm15.563232 4.84375l0 -1.21875q-0.90625 1.4375 -2.703125 1.4375q-1.15625 0 -2.125 -0.640625q-0.96875 -0.640625 -1.5 -1.78125q-0.53125 -1.140625 -0.53125 -2.625q0 -1.453125 0.484375 -2.625q0.484375 -1.1875 1.4375 -1.8125q0.96875 -0.625 2.171875 -0.625q0.875 0 1.546875 0.375q0.6875 0.359375 1.109375 0.953125l0 -4.796875l1.640625 0l0 13.359375l-1.53125 0zm-5.171875 -4.828125q0 1.859375 0.78125 2.78125q0.78125 0.921875 1.84375 0.921875q1.078125 0 1.828125 -0.875q0.75 -0.890625 0.75 -2.6875q0 -1.984375 -0.765625 -2.90625q-0.765625 -0.9375 -1.890625 -0.9375q-1.078125 0 -1.8125 0.890625q-0.734375 0.890625 -0.734375 2.8125zm15.906952 1.71875l1.6875 0.203125q-0.40625 1.484375 -1.484375 2.3125q-1.078125 0.8125 -2.765625 0.8125q-2.125 0 -3.375 -1.296875q-1.234375 -1.3125 -1.234375 -3.671875q0 -2.453125 1.25 -3.796875q1.265625 -1.34375 3.265625 -1.34375q1.9375 0 3.15625 1.328125q1.234375 1.3125 1.234375 3.703125q0 0.15625 0 0.4375l-7.21875 0q0.09375 1.59375 0.90625 2.453125q0.8125 0.84375 2.015625 0.84375q0.90625 0 1.546875 -0.46875q0.640625 -0.484375 1.015625 -1.515625zm-5.390625 -2.65625l5.40625 0q-0.109375 -1.21875 -0.625 -1.828125q-0.78125 -0.953125 -2.03125 -0.953125q-1.125 0 -1.90625 0.765625q-0.765625 0.75 -0.84375 2.015625z" fill-rule="nonzero"/>
    <path fill="#fce5cd" d="m476.1273 64.46457l126.01578 0l0 46.04724l-126.01578 0z" fill-rule="evenodd"/>
    <path stroke="#000000" stroke-width="1.0" stroke-linejoin="round" stroke-linecap="butt" d="m476.1273 64.46457l126.01578 0l0 46.04724l-126.01578 0z" fill-rule="evenodd"/>
    <path fill="#000000" d="m490.8188 94.40819l-2.96875 -9.671875l1.703125 0l1.53125 5.578125l0.578125 2.078125q0.046875 -0.15625 0.5 -2.0l1.546875 -5.65625l1.6875 0l1.4375 5.609375l0.484375 1.84375l0.5625 -1.859375l1.65625 -5.59375l1.59375 0l-3.03125 9.671875l-1.703125 0l-1.53125 -5.796875l-0.375 -1.640625l-1.953125 7.4375l-1.71875 0zm11.082306 -4.84375q0 -2.6875 1.484375 -3.96875q1.25 -1.078125 3.046875 -1.078125q2.0 0 3.265625 1.3125q1.265625 1.296875 1.265625 3.609375q0 1.859375 -0.5625 2.9375q-0.5625 1.0625 -1.640625 1.65625q-1.0625 0.59375 -2.328125 0.59375q-2.03125 0 -3.28125 -1.296875q-1.25 -1.3125 -1.25 -3.765625zm1.6875 0q0 1.859375 0.796875 2.796875q0.8125 0.921875 2.046875 0.921875q1.21875 0 2.03125 -0.921875q0.8125 -0.9375 0.8125 -2.84375q0 -1.796875 -0.8125 -2.71875q-0.8125 -0.921875 -2.03125 -0.921875q-1.234375 0 -2.046875 0.921875q-0.796875 0.90625 -0.796875 2.765625zm9.281952 4.84375l0 -9.671875l1.46875 0l0 1.46875q0.5625 -1.03125 1.03125 -1.359375q0.484375 -0.328125 1.0625 -0.328125q0.828125 0 1.6875 0.53125l-0.5625 1.515625q-0.609375 -0.359375 -1.203125 -0.359375q-0.546875 0 -0.96875 0.328125q-0.421875 0.328125 -0.609375 0.890625q-0.28125 0.875 -0.28125 1.921875l0 5.0625l-1.625 0zm6.2283325 0l0 -13.359375l1.640625 0l0 7.625l3.890625 -3.9375l2.109375 0l-3.6875 3.59375l4.0625 6.078125l-2.015625 0l-3.203125 -4.953125l-1.15625 1.125l0 3.828125l-1.640625 0zm15.953125 -3.109375l1.6875 0.203125q-0.40625 1.484375 -1.484375 2.3125q-1.078125 0.8125 -2.765625 0.8125q-2.125 0 -3.375 -1.296875q-1.234375 -1.3125 -1.234375 -3.671875q0 -2.453125 1.25 -3.796875q1.265625 -1.34375 3.265625 -1.34375q1.9375 0 3.15625 1.328125q1.234375 1.3125 1.234375 3.703125q0 0.15625 0 0.4375l-7.21875 0q0.09375 1.59375 0.90625 2.453125q0.8125 0.84375 2.015625 0.84375q0.90625 0 1.546875 -0.46875q0.640625 -0.484375 1.015625 -1.515625zm-5.390625 -2.65625l5.40625 0q-0.109375 -1.21875 -0.625 -1.828125q-0.78125 -0.953125 -2.03125 -0.953125q-1.125 0 -1.90625 0.765625q-0.765625 0.75 -0.84375 2.015625zm9.125732 5.765625l0 -9.671875l1.46875 0l0 1.46875q0.5625 -1.03125 1.03125 -1.359375q0.484375 -0.328125 1.0625 -0.328125q0.828125 0 1.6875 0.53125l-0.5625 1.515625q-0.609375 -0.359375 -1.203125 -0.359375q-0.546875 0 -0.96875 0.328125q-0.421875 0.328125 -0.609375 0.890625q-0.28125 0.875 -0.28125 1.921875l0 5.0625l-1.625 0zm11.41156 0l0 -9.671875l1.46875 0l0 1.375q1.0625 -1.59375 3.078125 -1.59375q0.875 0 1.609375 0.3125q0.734375 0.3125 1.09375 0.828125q0.375 0.5 0.515625 1.203125q0.09375 0.453125 0.09375 1.59375l0 5.953125l-1.640625 0l0 -5.890625q0 -1.0 -0.203125 -1.484375q-0.1875 -0.5 -0.671875 -0.796875q-0.484375 -0.296875 -1.140625 -0.296875q-1.046875 0 -1.8125 0.671875q-0.75 0.65625 -0.75 2.515625l0 5.28125l-1.640625 0zm9.766357 -4.84375q0 -2.6875 1.484375 -3.96875q1.25 -1.078125 3.046875 -1.078125q2.0 0 3.265625 1.3125q1.265625 1.296875 1.265625 3.609375q0 1.859375 -0.5625 2.9375q-0.5625 1.0625 -1.640625 1.65625q-1.0625 0.59375 -2.328125 0.59375q-2.03125 0 -3.28125 -1.296875q-1.25 -1.3125 -1.25 -3.765625zm1.6875 0q0 1.859375 0.796875 2.796875q0.8125 0.921875 2.046875 0.921875q1.21875 0 2.03125 -0.921875q0.8125 -0.9375 0.8125 -2.84375q0 -1.796875 -0.8125 -2.71875q-0.8125 -0.921875 -2.03125 -0.921875q-1.234375 0 -2.046875 0.921875q-0.796875 0.90625 -0.796875 2.765625zm15.563232 4.84375l0 -1.21875q-0.90625 1.4375 -2.703125 1.4375q-1.15625 0 -2.125 -0.640625q-0.96875 -0.640625 -1.5 -1.78125q-0.53125 -1.140625 -0.53125 -2.625q0 -1.453125 0.484375 -2.625q0.484375 -1.1875 1.4375 -1.8125q0.96875 -0.625 2.171875 -0.625q0.875 0 1.546875 0.375q0.6875 0.359375 1.109375 0.953125l0 -4.796875l1.640625 0l0 13.359375l-1.53125 0zm-5.171875 -4.828125q0 1.859375 0.78125 2.78125q0.78125 0.921875 1.84375 0.921875q1.078125 0 1.828125 -0.875q0.75 -0.890625 0.75 -2.6875q0 -1.984375 -0.765625 -2.90625q-0.765625 -0.9375 -1.890625 -0.9375q-1.078125 0 -1.8125 0.890625q-0.734375 0.890625 -0.734375 2.8125zm15.906982 1.71875l1.6875 0.203125q-0.40625 1.484375 -1.484375 2.3125q-1.078125 0.8125 -2.765625 0.8125q-2.125 0 -3.375 -1.296875q-1.234375 -1.3125 -1.234375 -3.671875q0 -2.453125 1.25 -3.796875q1.265625 -1.34375 3.265625 -1.34375q1.9375 0 3.15625 1.328125q1.234375 1.3125 1.234375 3.703125q0 0.15625 0 0.4375l-7.21875 0q0.09375 1.59375 0.90625 2.453125q0.8125 0.84375 2.015625 0.84375q0.90625 0 1.546875 -0.46875q0.640625 -0.484375 1.015625 -1.515625zm-5.390625 -2.65625l5.40625 0q-0.109375 -1.21875 -0.625 -1.828125q-0.78125 -0.953125 -2.03125 -0.953125q-1.125 0 -1.90625 0.765625q-0.765625 0.75 -0.84375 2.015625z" fill-rule="nonzero"/>
    <path fill="#fce5cd" d="m617.1273 64.46457l126.01575 0l0 46.04724l-126.01575 0z" fill-rule="evenodd"/>
    <path stroke="#000000" stroke-width="1.0" stroke-linejoin="round" stroke-linecap="butt" d="m617.1273 64.46457l126.01575 0l0 46.04724l-126.01575 0z" fill-rule="evenodd"/>
    <path fill="#000000" d="m631.8188 94.40819l-2.96875 -9.671875l1.703125 0l1.53125 5.578125l0.578125 2.078125q0.046875 -0.15625 0.5 -2.0l1.546875 -5.65625l1.6875 0l1.4375 5.609375l0.484375 1.84375l0.5625 -1.859375l1.65625 -5.59375l1.59375 0l-3.03125 9.671875l-1.703125 0l-1.53125 -5.796875l-0.375 -1.640625l-1.953125 7.4375l-1.71875 0zm11.082336 -4.84375q0 -2.6875 1.484375 -3.96875q1.25 -1.078125 3.046875 -1.078125q2.0 0 3.265625 1.3125q1.265625 1.296875 1.265625 3.609375q0 1.859375 -0.5625 2.9375q-0.5625 1.0625 -1.640625 1.65625q-1.0625 0.59375 -2.328125 0.59375q-2.03125 0 -3.28125 -1.296875q-1.25 -1.3125 -1.25 -3.765625zm1.6875 0q0 1.859375 0.796875 2.796875q0.8125 0.921875 2.046875 0.921875q1.21875 0 2.03125 -0.921875q0.8125 -0.9375 0.8125 -2.84375q0 -1.796875 -0.8125 -2.71875q-0.8125 -0.921875 -2.03125 -0.921875q-1.234375 0 -2.046875 0.921875q-0.796875 0.90625 -0.796875 2.765625zm9.281921 4.84375l0 -9.671875l1.46875 0l0 1.46875q0.5625 -1.03125 1.03125 -1.359375q0.484375 -0.328125 1.0625 -0.328125q0.828125 0 1.6875 0.53125l-0.5625 1.515625q-0.609375 -0.359375 -1.203125 -0.359375q-0.546875 0 -0.96875 0.328125q-0.421875 0.328125 -0.609375 0.890625q-0.28125 0.875 -0.28125 1.921875l0 5.0625l-1.625 0zm6.2283325 0l0 -13.359375l1.640625 0l0 7.625l3.890625 -3.9375l2.109375 0l-3.6875 3.59375l4.0625 6.078125l-2.015625 0l-3.203125 -4.953125l-1.15625 1.125l0 3.828125l-1.640625 0zm15.953125 -3.109375l1.6875 0.203125q-0.40625 1.484375 -1.484375 2.3125q-1.078125 0.8125 -2.765625 0.8125q-2.125 0 -3.375 -1.296875q-1.234375 -1.3125 -1.234375 -3.671875q0 -2.453125 1.25 -3.796875q1.265625 -1.34375 3.265625 -1.34375q1.9375 0 3.15625 1.328125q1.234375 1.3125 1.234375 3.703125q0 0.15625 0 0.4375l-7.21875 0q0.09375 1.59375 0.90625 2.453125q0.8125 0.84375 2.015625 0.84375q0.90625 0 1.546875 -0.46875q0.640625 -0.484375 1.015625 -1.515625zm-5.390625 -2.65625l5.40625 0q-0.109375 -1.21875 -0.625 -1.828125q-0.78125 -0.953125 -2.03125 -0.953125q-1.125 0 -1.90625 0.765625q-0.765625 0.75 -0.84375 2.015625zm9.125732 5.765625l0 -9.671875l1.46875 0l0 1.46875q0.5625 -1.03125 1.03125 -1.359375q0.484375 -0.328125 1.0625 -0.328125q0.828125 0 1.6875 0.53125l-0.5625 1.515625q-0.609375 -0.359375 -1.203125 -0.359375q-0.546875 0 -0.96875 0.328125q-0.421875 0.328125 -0.609375 0.890625q-0.28125 0.875 -0.28125 1.921875l0 5.0625l-1.625 0zm11.41156 0l0 -9.671875l1.46875 0l0 1.375q1.0625 -1.59375 3.078125 -1.59375q0.875 0 1.609375 0.3125q0.734375 0.3125 1.09375 0.828125q0.375 0.5 0.515625 1.203125q0.09375 0.453125 0.09375 1.59375l0 5.953125l-1.640625 0l0 -5.890625q0 -1.0 -0.203125 -1.484375q-0.1875 -0.5 -0.671875 -0.796875q-0.484375 -0.296875 -1.140625 -0.296875q-1.046875 0 -1.8125 0.671875q-0.75 0.65625 -0.75 2.515625l0 5.28125l-1.640625 0zm9.766357 -4.84375q0 -2.6875 1.484375 -3.96875q1.25 -1.078125 3.046875 -1.078125q2.0 0 3.265625 1.3125q1.265625 1.296875 1.265625 3.609375q0 1.859375 -0.5625 2.9375q-0.5625 1.0625 -1.640625 1.65625q-1.0625 0.59375 -2.328125 0.59375q-2.03125 0 -3.28125 -1.296875q-1.25 -1.3125 -1.25 -3.765625zm1.6875 0q0 1.859375 0.796875 2.796875q0.8125 0.921875 2.046875 0.921875q1.21875 0 2.03125 -0.921875q0.8125 -0.9375 0.8125 -2.84375q0 -1.796875 -0.8125 -2.71875q-0.8125 -0.921875 -2.03125 -0.921875q-1.234375 0 -2.046875 0.921875q-0.796875 0.90625 -0.796875 2.765625zm15.563232 4.84375l0 -1.21875q-0.90625 1.4375 -2.703125 1.4375q-1.15625 0 -2.125 -0.640625q-0.96875 -0.640625 -1.5 -1.78125q-0.53125 -1.140625 -0.53125 -2.625q0 -1.453125 0.484375 -2.625q0.484375 -1.1875 1.4375 -1.8125q0.96875 -0.625 2.171875 -0.625q0.875 0 1.546875 0.375q0.6875 0.359375 1.109375 0.953125l0 -4.796875l1.640625 0l0 13.359375l-1.53125 0zm-5.171875 -4.828125q0 1.859375 0.78125 2.78125q0.78125 0.921875 1.84375 0.921875q1.078125 0 1.828125 -0.875q0.75 -0.890625 0.75 -2.6875q0 -1.984375 -0.765625 -2.90625q-0.765625 -0.9375 -1.890625 -0.9375q-1.078125 0 -1.8125 0.890625q-0.734375 0.890625 -0.734375 2.8125zm15.906982 1.71875l1.6875 0.203125q-0.40625 1.484375 -1.484375 2.3125q-1.078125 0.8125 -2.765625 0.8125q-2.125 0 -3.375 -1.296875q-1.234375 -1.3125 -1.234375 -3.671875q0 -2.453125 1.25 -3.796875q1.265625 -1.34375 3.265625 -1.34375q1.9375 0 3.15625 1.328125q1.234375 1.3125 1.234375 3.703125q0 0.15625 0 0.4375l-7.21875 0q0.09375 1.59375 0.90625 2.453125q0.8125 0.84375 2.015625 0.84375q0.90625 0 1.546875 -0.46875q0.640625 -0.484375 1.015625 -1.515625zm-5.390625 -2.65625l5.40625 0q-0.109375 -1.21875 -0.625 -1.828125q-0.78125 -0.953125 -2.03125 -0.953125q-1.125 0 -1.90625 0.765625q-0.765625 0.75 -0.84375 2.015625z" fill-rule="nonzero"/>
    <path fill="#000000" fill-opacity="0.0" d="m115.11942 110.51181l222.86615 94.48819" fill-rule="evenodd"/>
    <path stroke="#000000" stroke-width="1.0" stroke-linejoin="round" stroke-linecap="butt" stroke-dasharray="4.0,3.0" d="m115.11942 110.51181l217.3421 92.14618" fill-rule="evenodd"/>
    <path fill="#000000" stroke="#000000" stroke-width="1.0" stroke-linecap="butt" d="m331.8168 204.1787l4.822815 0.2506714l-3.5333557 -3.2920837z" fill-rule="evenodd"/>
    <path fill="#000000" fill-opacity="0.0" d="m256.11942 110.51181l117.88977 96.50394" fill-rule="evenodd"/>
    <path stroke="#000000" stroke-width="1.0" stroke-linejoin="round" stroke-linecap="butt" stroke-dasharray="4.0,3.0" d="m256.11942 110.51181l113.24698 92.70337" fill-rule="evenodd"/>
    <path fill="#000000" stroke="#000000" stroke-width="1.0" stroke-linecap="butt" d="m368.32013 204.49329l4.557831 1.5964508l-2.465332 -4.1526794z" fill-rule="evenodd"/>
    <path fill="#000000" fill-opacity="0.0" d="m398.13516 110.51181l-0.50393677 96.0" fill-rule="evenodd"/>
    <path stroke="#000000" stroke-width="1.0" stroke-linejoin="round" stroke-linecap="butt" stroke-dasharray="4.0,3.0" d="m398.13516 110.51181l-0.47244263 90.00008" fill-rule="evenodd"/>
    <path fill="#000000" stroke="#000000" stroke-width="1.0" stroke-linecap="butt" d="m396.01102 200.50322l1.6278992 4.546707l1.6755371 -4.529358z" fill-rule="evenodd"/>
    <path fill="#000000" fill-opacity="0.0" d="m539.1352 110.51181l-110.141754 96.50394" fill-rule="evenodd"/>
    <path stroke="#000000" stroke-width="1.0" stroke-linejoin="round" stroke-linecap="butt" stroke-dasharray="4.0,3.0" d="m539.1352 110.51181l-105.62891 92.5499" fill-rule="evenodd"/>
    <path fill="#000000" stroke="#000000" stroke-width="1.0" stroke-linecap="butt" d="m432.41776 201.81938l-2.324768 4.232956l4.50177 -1.7483063z" fill-rule="evenodd"/>
    <path fill="#000000" fill-opacity="0.0" d="m680.1352 110.51181l-216.126 95.49606" fill-rule="evenodd"/>
    <path stroke="#000000" stroke-width="1.0" stroke-linejoin="round" stroke-linecap="butt" stroke-dasharray="4.0,3.0" d="m680.1352 110.51181l-210.63785 93.071106" fill-rule="evenodd"/>
    <path fill="#000000" stroke="#000000" stroke-width="1.0" stroke-linecap="butt" d="m468.82974 202.0721l-3.483368 3.3449402l4.818512 -0.32328796z" fill-rule="evenodd"/>
    <path fill="#000000" fill-opacity="0.0" d="M 487.629 262.992 L 504 262.992 L 504 388.032 L 487.692 388.032" fill-rule="evenodd"/>
    <path stroke="#000000" stroke-width="1.0" stroke-linejoin="round" stroke-linecap="butt" d="M 493.629 262.992 L 504 262.992 L 504 388.032 L 493.692 388.032" fill-rule="evenodd"/>
    <path fill="#000000" stroke="#000000" stroke-width="1.0" stroke-linecap="butt" d="M 493.629 261.34 L 489.091 262.992 L 493.629 264.644 Z" fill-rule="evenodd"/>
    <path fill="#000000" stroke="#000000" stroke-width="1.0" stroke-linecap="butt" d="M 493.692 386.38 L 489.154 388.031 L 493.692 389.683 Z" fill-rule="evenodd"/>
    <path fill="#cfe2f3" d="M 322.011 379.786 L 322.011 379.786 C 322.011 381.036 326.065 382.05 331.066 382.05 C 336.067 382.05 340.121 381.036 340.121 379.786 L 340.121 396.266 C 340.121 397.517 336.067 398.53 331.066 398.53 C 326.065 398.53 322.011 397.517 322.011 396.266 Z" fill-rule="evenodd"/>
    <path fill="#e2edf7" d="M 322.011 379.786 L 322.011 379.786 C 322.011 378.536 326.065 377.522 331.066 377.522 C 336.067 377.522 340.121 378.536 340.121 379.786 L 340.121 379.786 C 340.121 381.036 336.067 382.05 331.066 382.05 C 326.065 382.05 322.011 381.036 322.011 379.786 Z" fill-rule="evenodd"/>
    <path fill="#000000" fill-opacity="0.0" d="M 340.121 379.786 L 340.121 379.786 C 340.121 381.036 336.067 382.05 331.066 382.05 C 326.065 382.05 322.011 381.036 322.011 379.786 L 322.011 379.786 C 322.011 378.536 326.065 377.522 331.066 377.522 C 336.067 377.522 340.121 378.536 340.121 379.786 L 340.121 396.266 C 340.121 397.517 336.067 398.53 331.066 398.53 C 326.065 398.53 322.011 397.517 322.011 396.266 L 322.011 379.786" fill-rule="evenodd"/>
    <path stroke="#000000" stroke-width="1.0" stroke-linejoin="round" stroke-linecap="butt" d="M 340.121 379.786 L 340.121 379.786 C 340.121 381.036 336.067 382.05 331.066 382.05 C 326.065 382.05 322.011 381.036 322.011 379.786 L 322.011 379.786 C 322.011 378.536 326.065 377.522 331.066 377.522 C 336.067 377.522 340.121 378.536 340.121 379.786 L 340.121 396.266 C 340.121 397.517 336.067 398.53 331.066 398.53 C 326.065 398.53 322.011 397.517 322.011 396.266 L 322.011 379.786" fill-rule="evenodd"/>
  </g>
</svg>