<?xml version="1.0" encoding="utf-8"?>
<svg viewBox="0 0 128 128" xmlns="http://www.w3.org/2000/svg">
  <path fill="#0069ff" d="M 9.669 54.703 C 9.421 54.703 9.358 54.574 9.482 54.376 L 10.793 52.618 C 10.917 52.422 11.229 52.293 11.479 52.293 L 33.751 52.293 C 34.001 52.293 34.063 52.488 33.938 52.683 L 32.878 54.376 C 32.753 54.574 32.442 54.769 32.253 54.769 Z M 0.25 60.697 C 0 60.697 -0.063 60.569 0.063 60.371 L 1.372 58.611 C 1.498 58.417 1.809 58.287 2.06 58.287 L 30.506 58.287 C 30.757 58.287 30.881 58.482 30.819 58.677 L 30.319 60.242 C 30.258 60.503 30.008 60.633 29.759 60.633 Z M 15.347 66.692 C 15.098 66.692 15.035 66.497 15.159 66.301 L 16.033 64.672 C 16.159 64.476 16.407 64.282 16.658 64.282 L 29.134 64.282 C 29.384 64.282 29.509 64.476 29.509 64.738 L 29.384 66.301 C 29.384 66.563 29.134 66.758 28.947 66.758 Z M 79.97 52.965 C 76.04 54.009 73.357 54.789 69.49 55.833 C 68.554 56.094 68.491 56.16 67.68 55.181 C 66.744 54.074 66.058 53.356 64.747 52.706 C 60.818 50.686 57.011 51.273 53.455 53.683 C 49.213 56.548 47.03 60.784 47.092 66.063 C 47.154 71.275 50.586 75.575 55.515 76.293 C 59.757 76.879 63.313 75.316 66.12 71.993 C 66.681 71.275 67.181 70.495 67.804 69.582 C 65.559 69.582 62.752 69.582 55.764 69.582 C 54.454 69.582 54.143 68.736 54.579 67.627 C 55.391 65.607 56.887 62.219 57.76 60.523 C 57.948 60.133 58.385 59.482 59.32 59.482 L 82.029 59.482 C 81.905 61.242 81.905 63.002 81.655 64.76 C 80.968 69.451 79.283 73.751 76.539 77.53 C 72.047 83.721 66.182 87.566 58.758 88.608 C 52.645 89.455 46.967 88.216 41.976 84.308 C 37.361 80.658 34.74 75.837 34.054 69.842 C 33.243 62.741 35.238 56.354 39.356 50.752 C 43.786 44.691 49.65 40.846 56.824 39.479 C 62.689 38.37 68.303 39.087 73.357 42.671 C 76.664 44.952 79.035 48.079 80.594 51.858 C 80.968 52.445 80.719 52.769 79.97 52.965 Z M 100.619 89 C 94.943 88.868 89.765 87.175 85.398 83.264 C 81.718 79.941 79.409 75.706 78.66 70.69 C 77.537 63.327 79.471 56.811 83.713 51.011 C 88.267 44.756 93.757 41.498 101.181 40.129 C 107.545 38.957 113.535 39.608 118.962 43.453 C 123.89 46.971 126.948 51.729 127.758 57.984 C 128.819 66.781 126.386 73.947 120.583 80.072 C 116.466 84.438 111.412 87.175 105.61 88.413 C 103.927 88.738 102.242 88.802 100.619 89 Z M 115.467 62.675 C 115.406 61.828 115.406 61.176 115.28 60.523 C 114.158 54.074 108.481 50.425 102.555 51.858 C 96.752 53.226 93.008 57.071 91.636 63.196 C 90.514 68.279 92.884 73.426 97.376 75.512 C 100.808 77.073 104.238 76.879 107.545 75.119 C 112.473 72.449 115.156 68.279 115.467 62.675 Z" style=""/>
</svg>