<?xml version="1.0" encoding="utf-8"?>
<svg viewBox="0 0 128 128" xmlns="http://www.w3.org/2000/svg">
  <path fill="#0069ff" d="M 46.921 98.989 C 46.921 98.989 41.946 101.837 50.464 102.797 C 60.778 103.961 66.05 103.793 77.411 101.673 C 77.411 101.673 80.406 103.517 84.574 105.117 C 59.09 115.853 26.907 104.489 46.921 98.989 Z M 43.804 84.977 C 43.804 84.977 38.227 89.037 46.746 89.905 C 57.764 91.021 66.465 91.117 81.529 88.261 C 81.529 88.261 83.611 90.336 86.882 91.473 C 56.081 100.333 21.762 92.165 43.809 84.977 Z M 70.054 61.201 C 76.334 68.308 68.405 74.708 68.405 74.708 C 68.405 74.708 84.347 66.613 77.026 56.481 C 70.188 47.029 64.94 42.337 93.333 26.144 C 93.333 26.14 48.771 37.085 70.054 61.201 Z M 103.754 109.357 C 103.754 109.357 107.436 112.337 99.703 114.641 C 84.994 119.025 38.48 120.341 25.568 114.817 C 20.927 112.829 29.636 110.069 32.369 109.493 C 35.229 108.885 36.86 108.997 36.86 108.997 C 31.691 105.417 3.473 116.021 22.526 119.061 C 74.482 127.345 117.235 115.329 103.754 109.353 Z M 49.312 70.453 C 49.312 70.453 25.654 75.977 40.937 77.985 C 47.383 78.833 60.25 78.641 72.23 77.653 C 82.025 76.841 91.852 75.109 91.852 75.109 C 91.852 75.109 88.399 76.56 85.897 78.24 C 61.877 84.453 15.464 81.564 28.831 75.213 C 40.122 69.849 49.312 70.457 49.312 70.457 Z M 91.747 93.781 C 116.169 81.3 104.877 69.305 96.998 70.929 C 95.074 71.325 94.203 71.665 94.203 71.665 C 94.203 71.665 94.919 70.561 96.29 70.081 C 111.882 64.689 123.873 85.981 91.257 94.413 C 91.257 94.409 91.637 94.081 91.747 93.785 Z M 77.022 0 C 77.022 0 90.547 13.3 64.196 33.761 C 43.063 50.173 59.379 59.533 64.192 70.221 C 51.858 59.272 42.808 49.645 48.877 40.68 C 57.792 27.512 82.488 21.132 77.026 0.004 Z M 51.712 127.597 C 75.153 129.073 111.149 126.781 112 115.873 C 112 115.873 110.36 120.005 92.625 123.293 C 72.624 126.993 47.941 126.561 33.305 124.189 C 33.305 124.185 36.303 126.625 51.707 127.597 Z"/>
</svg>