<?xml version="1.0" encoding="utf-8"?>
<svg viewBox="0 0 128 128" xmlns="http://www.w3.org/2000/svg">
  <path fill="#0069ff" d="M 54.418 76.708 L 54.455 76.764 L 49.124 89.817 C 44.058 86.494 40.201 81.666 38.12 75.961 L 38.063 75.764 L 51.804 73.399 L 51.829 73.428 C 51.957 73.403 52.105 73.387 52.254 73.387 C 53.555 73.387 54.604 74.453 54.604 75.768 C 54.604 76.113 54.538 76.428 54.41 76.721 L 54.414 76.705 Z M 49.975 65.197 C 50.982 64.908 51.705 63.987 51.705 62.896 C 51.705 62.185 51.391 61.543 50.9 61.107 L 50.9 61.102 L 50.908 61.039 L 40.453 51.547 C 37.906 55.691 36.394 60.724 36.394 66.108 C 36.394 67.179 36.452 68.241 36.568 69.283 L 36.555 69.157 L 49.967 65.234 Z M 56.082 54.483 C 56.466 54.763 56.945 54.94 57.465 54.94 C 58.724 54.94 59.757 53.932 59.806 52.664 L 59.806 52.659 L 59.86 52.629 L 60.661 38.456 C 54.356 39.224 48.815 42.059 44.603 46.264 L 44.607 46.26 L 56.061 54.503 Z M 60.136 69.358 L 63.993 71.245 L 67.845 69.367 L 68.803 65.147 L 66.132 61.774 L 61.846 61.774 L 59.183 65.147 Z M 68.139 52.617 C 68.188 53.882 69.22 54.894 70.48 54.894 C 71 54.894 71.483 54.723 71.875 54.429 L 71.867 54.432 L 71.913 54.449 L 83.288 46.264 C 79.101 42.102 73.601 39.27 67.474 38.478 L 67.338 38.46 L 68.122 52.613 Z M 126.139 84.915 L 95.353 123.77 C 93.776 125.735 91.389 126.982 88.718 126.982 C 88.71 126.982 88.701 126.982 88.697 126.982 L 39.305 127 C 39.305 127 39.301 127 39.297 127 C 36.622 127 34.231 125.748 32.666 123.79 L 32.654 123.774 L 1.851 84.929 C 0.699 83.474 0.001 81.61 0.001 79.577 C 0.001 78.906 0.075 78.251 0.22 77.62 L 0.212 77.678 L 11.199 29.228 C 11.777 26.678 13.47 24.55 15.807 23.42 L 60.298 1.848 C 61.375 1.312 62.647 1 63.989 1 C 65.331 1 66.603 1.312 67.734 1.874 L 67.676 1.848 L 112.187 23.406 C 114.52 24.536 116.217 26.67 116.791 29.216 L 127.787 77.664 C 128.365 80.207 127.758 82.874 126.143 84.915 Z M 108.599 73.784 C 108.372 73.732 108.05 73.642 107.827 73.602 C 106.898 73.419 106.151 73.471 105.271 73.393 C 103.405 73.197 101.869 73.033 100.498 72.594 C 99.941 72.382 99.536 71.707 99.346 71.426 L 98.277 71.107 C 98.479 69.674 98.603 68.023 98.603 66.343 C 98.603 63.559 98.281 60.85 97.674 58.25 L 97.719 58.486 C 96.695 54.046 94.973 50.132 92.653 46.663 L 92.727 46.785 C 93.004 46.529 93.524 46.065 93.673 45.922 C 93.714 45.439 93.677 44.935 94.168 44.399 C 95.225 43.396 96.538 42.567 98.132 41.577 C 98.892 41.119 99.594 40.833 100.349 40.265 C 100.523 40.134 100.75 39.926 100.936 39.778 C 102.216 38.744 102.509 36.969 101.588 35.801 C 100.676 34.629 98.892 34.521 97.616 35.554 C 97.442 35.701 97.195 35.893 97.03 36.032 C 96.311 36.663 95.873 37.275 95.271 37.926 C 93.958 39.274 92.867 40.404 91.682 41.22 C 91.162 41.525 90.407 41.416 90.064 41.399 L 89.048 42.132 C 83.391 36.115 75.695 32.122 67.082 31.303 L 66.941 31.291 L 66.875 30.085 C 66.524 29.753 66.111 29.464 66.004 28.737 C 65.892 27.288 66.091 25.722 66.314 23.836 C 66.437 22.955 66.636 22.227 66.677 21.269 C 66.681 21.055 66.673 20.735 66.673 20.5 C 66.673 18.845 65.475 17.498 64.005 17.498 C 62.535 17.498 61.342 18.845 61.342 20.5 L 61.35 20.577 C 61.35 20.802 61.334 21.077 61.35 21.273 C 61.379 22.231 61.586 22.958 61.706 23.84 C 61.929 25.722 62.123 27.288 62.003 28.746 C 61.846 29.299 61.545 29.774 61.14 30.131 L 61.14 30.136 L 61.078 31.278 C 52.275 32.021 44.504 36.032 38.872 42.102 L 38.855 42.114 C 38.397 41.79 38.083 41.568 37.774 41.337 L 37.897 41.42 C 37.418 41.489 36.935 41.639 36.312 41.264 C 35.127 40.455 34.037 39.33 32.724 37.974 C 32.121 37.326 31.683 36.709 30.969 36.087 C 30.808 35.945 30.552 35.751 30.378 35.612 C 29.875 35.197 29.231 34.933 28.529 34.899 L 28.52 34.899 C 28.479 34.893 28.434 34.893 28.38 34.893 C 27.583 34.893 26.873 35.264 26.398 35.843 L 26.394 35.846 C 25.481 37.015 25.775 38.805 27.055 39.838 L 27.088 39.867 L 27.645 40.316 C 28.401 40.882 29.098 41.176 29.85 41.627 C 31.448 42.631 32.765 43.458 33.818 44.449 C 34.223 44.895 34.297 45.671 34.351 46.008 L 35.201 46.785 C 31.572 52.235 29.404 58.952 29.404 66.185 C 29.404 67.94 29.532 69.67 29.784 71.359 L 29.759 71.164 L 28.652 71.493 C 28.359 71.882 27.946 72.484 27.505 72.664 C 26.134 73.101 24.594 73.261 22.731 73.463 C 21.852 73.533 21.105 73.492 20.171 73.668 C 19.977 73.71 19.692 73.781 19.465 73.836 L 19.445 73.848 L 19.408 73.858 C 17.838 74.245 16.831 75.71 17.153 77.15 C 17.475 78.59 19.011 79.467 20.593 79.124 L 20.63 79.119 L 20.679 79.102 L 21.369 78.947 C 22.277 78.695 22.938 78.33 23.755 78.015 C 25.519 77.377 26.972 76.843 28.396 76.634 C 28.991 76.582 29.627 77.003 29.932 77.183 L 31.089 76.983 C 33.793 85.294 39.227 92.059 46.292 96.348 L 46.449 96.442 L 45.97 97.621 C 46.143 98.076 46.337 98.696 46.205 99.146 C 45.689 100.505 44.801 101.938 43.794 103.543 C 43.311 104.276 42.807 104.854 42.365 105.705 C 42.258 105.901 42.126 106.218 42.026 106.427 C 41.341 107.917 41.845 109.625 43.162 110.272 C 44.483 110.923 46.127 110.236 46.841 108.747 L 46.841 108.734 C 46.948 108.524 47.085 108.246 47.171 108.048 C 47.543 107.171 47.671 106.418 47.939 105.571 C 48.645 103.769 49.033 101.887 50.004 100.717 C 50.268 100.393 50.697 100.274 51.152 100.149 L 51.759 99.04 C 55.429 100.519 59.678 101.37 64.133 101.37 C 68.523 101.37 72.718 100.545 76.57 99.023 L 76.339 99.106 L 76.9 100.144 C 77.363 100.296 77.863 100.367 78.263 100.984 C 78.99 102.241 79.485 103.727 80.084 105.529 C 80.356 106.374 80.484 107.122 80.856 107.999 C 80.943 108.196 81.087 108.491 81.195 108.696 C 81.901 110.19 83.544 110.876 84.874 110.224 C 86.191 109.585 86.695 107.869 86.009 106.382 C 85.902 106.166 85.77 105.862 85.658 105.655 C 85.212 104.811 84.717 104.244 84.234 103.501 C 83.218 101.895 82.384 100.574 81.868 99.213 C 81.657 98.506 81.905 98.076 82.07 97.621 C 81.975 97.503 81.752 96.839 81.624 96.528 C 88.875 92.115 94.313 85.298 96.918 77.183 L 96.984 76.931 C 97.327 76.986 97.93 77.095 98.124 77.137 C 98.52 76.869 98.892 76.525 99.618 76.574 C 101.035 76.789 102.496 77.322 104.255 77.96 C 105.077 78.285 105.734 78.654 106.642 78.898 C 106.832 78.947 107.113 78.999 107.336 79.049 L 107.385 79.064 L 107.418 79.069 C 109.004 79.414 110.536 78.536 110.862 77.091 C 111.18 75.651 110.176 74.185 108.603 73.798 Z M 87.467 51.56 L 77.066 61.006 L 77.066 61.036 C 76.566 61.471 76.252 62.118 76.252 62.832 C 76.252 63.924 76.979 64.844 77.97 65.125 L 77.991 65.129 L 78.003 65.18 L 91.472 69.122 C 91.563 68.301 91.604 67.346 91.604 66.377 C 91.604 64.143 91.348 61.958 90.865 59.868 L 90.898 60.06 C 90.159 56.844 88.978 54.003 87.396 51.438 L 87.467 51.556 Z M 66.062 80.372 C 65.661 79.616 64.889 79.111 64.001 79.111 C 63.964 79.111 63.931 79.111 63.898 79.115 L 63.902 79.115 C 63.043 79.15 62.308 79.644 61.929 80.367 L 61.916 80.38 L 61.908 80.38 L 55.144 92.779 C 57.795 93.727 60.851 94.278 64.038 94.278 C 67.205 94.278 70.244 93.731 73.077 92.741 L 72.883 92.798 L 66.111 80.38 Z M 76.124 73.375 C 75.996 73.349 75.852 73.337 75.703 73.337 C 75.336 73.337 74.985 73.416 74.675 73.576 L 74.687 73.568 C 73.894 73.962 73.354 74.773 73.354 75.713 C 73.354 76.049 73.424 76.381 73.552 76.674 L 73.548 76.659 L 73.531 76.679 L 78.92 89.868 C 84.015 86.533 87.892 81.666 89.956 75.914 L 90.018 75.722 L 76.149 73.341 Z"/>
</svg>