<?xml version="1.0" encoding="utf-8"?>
<svg viewBox="0 0 128 128" xmlns="http://www.w3.org/2000/svg">
  <path fill="#0069ff" d="M 63.983 127.999 C 62.323 127.999 60.668 127.551 59.218 126.683 L 44.043 117.419 C 41.779 116.111 42.884 115.647 43.628 115.375 C 46.652 114.291 47.26 114.043 50.493 112.155 C 50.83 111.959 51.272 112.031 51.621 112.247 L 63.281 119.387 C 63.704 119.627 64.3 119.627 64.688 119.387 L 110.147 92.316 C 110.569 92.064 110.841 91.564 110.841 91.048 L 110.841 36.918 C 110.841 36.39 110.566 35.894 110.131 35.626 L 64.696 8.575 C 64.277 8.323 63.719 8.323 63.297 8.575 L 17.869 35.63 C 17.431 35.89 17.152 36.402 17.152 36.914 L 17.152 91.044 C 17.152 91.56 17.431 92.052 17.869 92.296 L 30.32 99.72 C 37.077 103.208 41.217 99.1 41.217 94.972 L 41.217 41.53 C 41.217 40.774 41.806 40.182 42.538 40.182 L 48.303 40.182 C 49.02 40.182 49.621 40.778 49.621 41.53 L 49.621 94.972 C 49.621 104.28 44.709 109.612 36.162 109.612 C 33.537 109.612 31.463 109.612 25.692 106.672 L 13.764 99.596 C 10.818 97.84 9 94.556 9 91.04 L 9 36.91 C 9 33.394 10.826 30.11 13.764 28.362 L 59.222 1.259 C 62.102 -0.421 65.921 -0.421 68.774 1.259 L 114.225 28.362 C 117.17 30.118 119 33.398 119 36.91 L 119 91.04 C 119 94.556 117.17 97.828 114.225 99.596 L 68.774 126.679 C 67.328 127.547 65.677 127.995 63.994 127.995 Z M 100.684 74.629 C 100.684 64.497 94.048 61.797 80.078 59.893 C 65.963 57.969 64.525 56.969 64.525 53.561 C 64.525 50.745 65.739 46.986 76.198 46.986 C 85.536 46.986 88.977 49.061 90.396 55.557 C 90.52 56.169 91.063 56.617 91.671 56.617 L 97.567 56.617 C 97.936 56.617 98.281 56.453 98.529 56.185 C 98.777 55.897 98.913 55.529 98.874 55.141 C 97.959 43.954 90.753 38.738 76.194 38.738 C 63.231 38.738 55.497 44.382 55.497 53.845 C 55.497 64.113 63.188 66.949 75.628 68.217 C 90.513 69.721 91.664 71.965 91.664 74.985 C 91.664 80.228 87.586 82.46 78.008 82.46 C 65.979 82.46 63.335 79.345 62.444 73.169 C 62.339 72.509 61.792 72.021 61.137 72.021 L 55.26 72.021 C 54.533 72.021 53.947 72.617 53.947 73.369 C 53.947 81.272 58.114 90.692 78.008 90.692 C 92.416 90.696 100.677 84.848 100.677 74.625 Z"/>
</svg>